comic-neue-angular_light.sfdir
StartChar: exclam
Encoding: 33 33 94
Width: 175
Flags: MW
HStem: 2 21G<61 61> 678 20G<103 103>
VStem: 67 36<165 165 165 691 691 691>
LayerCount: 2
Back
Fore
SplineSet
103 165 m 1
 67 156 l 1
 67 691 l 1
 103 698 l 1
 103 165 l 1
104 73 m 1
 97 9 l 1
 61 2 l 1
 67 66 l 1
 104 73 l 1
EndSplineSet
EndChar
StartChar: quotedbl
Encoding: 34 34 114
Width: 302
Flags: MW
HStem: 523 21G<74 74 199 199> 676 20G<109 109 234 234>
VStem: 74 35<530 530 530 688 688 688> 199 35<530 530 530 688 688 688>
LayerCount: 2
Back
Fore
SplineSet
109 530 m 1
 74 523 l 1
 74 688 l 1
 109 696 l 1
 109 530 l 1
234 530 m 1
 199 523 l 1
 199 688 l 1
 234 696 l 1
 234 530 l 1
EndSplineSet
EndChar
StartChar: numbersign
Encoding: 35 35 86
Width: 741
Flags: MW
HStem: 1 21G<152 152 370 370> 221 35<75 215 65 226 261 434 75 251 480 634> 449 34<116 281 106 291 116 316 327 500 545 681> 680 20G<389 389>
LayerCount: 2
Back
Fore
SplineSet
681 449 m 1
 535 449 l 1
 480 256 l 1
 644 256 l 1
 634 221 l 1
 469 221 l 1
 408 4 l 1
 370 1 l 1
 434 221 l 1
 251 221 l 1
 189 4 l 1
 152 1 l 1
 215 221 l 1
 65 221 l 1
 75 256 l 1
 226 256 l 1
 281 449 l 1
 106 449 l 1
 116 483 l 1
 291 483 l 1
 353 697 l 1
 389 700 l 1
 327 483 l 1
 510 483 l 1
 570 696 l 1
 608 699 l 1
 545 483 l 1
 690 483 l 1
 681 449 l 1
444 256 m 1
 500 449 l 1
 316 449 l 1
 261 256 l 1
 444 256 l 1
EndSplineSet
EndChar
StartChar: dollar
Encoding: 36 36 101
Width: 595
Flags: MW
HStem: -76 21G<295 295> 647 38<295 329> 739 20G<329 329>
VStem: 103 46<493.5 544.5 493.5 579> 295 34<-69 -1 -1 -1 39 340 391 645 645 645 688 752 752 752> 498 45<134.5 231.5>
LayerCount: 2
Back
Fore
SplineSet
329 647 m 1
 329 381 l 1
 469 340 543 275 543 189 c 0
 543 80 442 12 329 0 c 1
 329 -69 l 1
 295 -76 l 1
 295 -1 l 1
 186 7 99 58 69 140 c 1
 113 147 l 1
 143 81 221 48 295 39 c 1
 295 350 l 1
 201 379 103 431 103 521 c 0
 103 637 213 681 295 685 c 1
 295 752 l 1
 329 759 l 1
 329 688 l 1
 402 686 540 664 540 551 c 2
 540 542 l 1
 505 533 l 1
 505 545 l 2
 505 618 418 646 329 647 c 1
149 521 m 0
 149 466 191 427 295 391 c 1
 295 645 l 1
 176 631 149 568 149 521 c 0
498 187 m 0
 498 276 415 310 329 340 c 1
 329 39 l 1
 387 49 498 80 498 187 c 0
EndSplineSet
EndChar
StartChar: percent
Encoding: 37 37 96
Width: 718
Flags: MW
HStem: -8 35<506 558 506 568> 0 21G<146 190 146 146> 219 35<506 558> 440 35<167 219 167 229> 667 35<167 219>
VStem: 61 36<545 597 545 607> 289 35<545 597> 401 35<97 149 97 159> 628 35<97 149>
LayerCount: 2
Back
Fore
SplineSet
193 440 m 0xbf80
 121 440 61 499 61 571 c 0
 61 643 121 702 193 702 c 0
 265 702 324 643 324 571 c 0
 324 499 265 440 193 440 c 0xbf80
193 667 m 0
 141 667 97 623 97 571 c 0
 97 519 141 475 193 475 c 0
 245 475 289 519 289 571 c 0
 289 623 245 667 193 667 c 0
532 -8 m 0
 460 -8 401 51 401 123 c 0
 401 195 460 254 532 254 c 0
 604 254 663 195 663 123 c 0
 663 51 604 -8 532 -8 c 0
532 219 m 0
 480 219 436 175 436 123 c 0
 436 71 480 27 532 27 c 0
 584 27 628 71 628 123 c 0
 628 175 584 219 532 219 c 0
541 697 m 1
 584 697 l 1
 190 0 l 1
 146 0 l 1x7f80
 541 697 l 1
EndSplineSet
EndChar
StartChar: ampersand
Encoding: 38 38 100
Width: 652
Flags: MW
HStem: -4 35<230 288.5 230 292.5> 663 35<270 322>
VStem: 62 36<127.5 228.5 127.5 235> 153 35<533.5 589.5 533.5 596.5> 404 34<541 587.5>
LayerCount: 2
Back
Fore
SplineSet
488 154 m 1
 594 26 l 1
 567 4 l 1
 469 122 l 1
 414 36 322 -4 263 -4 c 0
 167 -4 62 66 62 178 c 0
 62 292 150 345 238 393 c 1
 205 431 153 499 153 560 c 0
 153 633 222 698 295 698 c 0
 369 698 438 632 438 563 c 0
 438 473 383 435 295 383 c 1
 463 183 l 1
 473 205 494 263 509 312 c 1
 537 281 l 1
 520 232 498 175 488 154 c 1
188 560 m 0
 188 507 238 444 270 411 c 1
 398 477 404 519 404 563 c 0
 404 612 349 663 295 663 c 0
 245 663 188 619 188 560 c 0
263 31 m 0
 314 31 394 68 444 150 c 1
 263 368 l 1
 170 319 98 279 98 178 c 0
 98 77 197 31 263 31 c 0
EndSplineSet
EndChar
StartChar: quotesingle
Encoding: 39 39 113
Width: 178
Flags: MW
HStem: 523 21G<74 74> 676 20G<110 110>
VStem: 74 36<530 530 530 688 688 688>
LayerCount: 2
Back
Fore
SplineSet
110 530 m 1
 74 523 l 1
 74 688 l 1
 110 696 l 1
 110 530 l 1
EndSplineSet
EndChar
StartChar: parenleft
Encoding: 40 40 103
Width: 367
Flags: MW
HStem: -119 21G<259 259> 799 20G<281 281>
VStem: 69 36<278 440.5>
LayerCount: 2
Back
Fore
SplineSet
284 -94 m 1
 259 -119 l 1
 137 4 69 200 69 356 c 0
 69 525 149 705 281 819 c 1
 303 792 l 1
 187 691 105 528 105 356 c 0
 105 196 180 10 284 -94 c 1
EndSplineSet
EndChar
StartChar: parenright
Encoding: 41 41 102
Width: 367
Flags: MW
HStem: -118 21G<113 113> 799 20G<94 94>
VStem: 269 36<266.5 410.5 262.5 472>
LayerCount: 2
Back
Fore
SplineSet
68 794 m 1
 94 819 l 1
 258 674 305 477 305 344 c 0
 305 181 234 9 113 -118 c 1
 91 -91 l 1
 202 29 269 189 269 344 c 0
 269 600 113 752 68 794 c 1
EndSplineSet
EndChar
StartChar: asterisk
Encoding: 42 42 105
Width: 407
Flags: MW
HStem: 440 21G 693 20G<188 223 223 223>
VStem: 188 35<644 713>
LayerCount: 2
Back
Fore
SplineSet
198 578 m 1
 195 596 188 628 188 644 c 2
 188 713 l 1
 223 713 l 1
 223 644 l 2
 223 628 214 591 213 579 c 1
 230 588 257 604 273 609 c 2
 338 630 l 1
 348 597 l 1
 282 576 l 2
 268 571 230 567 218 564 c 1
 232 551 256 530 265 517 c 2
 305 461 l 1
 276 440 l 1
 236 497 l 2
 228 510 212 544 206 555 c 1
 198 538 185 508 175 495 c 2
 135 440 l 1
 106 461 l 1
 148 516 l 2
 158 529 185 555 193 563 c 1
 175 566 143 569 128 575 c 2
 62 596 l 1
 74 629 l 1
 139 607 l 2
 154 602 187 583 198 578 c 1
EndSplineSet
EndChar
StartChar: plus
Encoding: 43 43 104
Width: 431
Flags: MW
HStem: 91 21G<202 202> 233 36<66 202 66 202 59 202 237 373 66 237> 387 20G<237 237>
VStem: 202 35<98 233 98 233 98 233 269 399 399 399>
LayerCount: 2
Back
Fore
SplineSet
381 269 m 1
 373 233 l 1
 237 233 l 1
 237 98 l 1
 202 91 l 1
 202 233 l 1
 59 233 l 1
 66 269 l 1
 202 269 l 1
 202 399 l 1
 237 407 l 1
 237 269 l 1
 381 269 l 1
EndSplineSet
EndChar
StartChar: comma
Encoding: 44 44 72
Width: 307
Flags: MW
HStem: -125 21G<132 132> 40 20G<162 162>
LayerCount: 2
Back
Fore
SplineSet
162 60 m 1
 220 29 l 1
 132 -125 l 1
 100 -106 l 1
 156 -6 l 1
 119 16 l 1
 162 60 l 1
EndSplineSet
EndChar
StartChar: hyphen
Encoding: 45 45 112
Width: 432
Flags: MW
HStem: 232 36<84 359 77 366>
LayerCount: 2
Back
Fore
SplineSet
359 232 m 1
 77 232 l 1
 84 268 l 1
 366 268 l 1
 359 232 l 1
EndSplineSet
EndChar
StartChar: period
Encoding: 46 46 107
Width: 212
Flags: MW
HStem: 1 21G<77 77> 54 20G<139 139>
LayerCount: 2
Back
Fore
SplineSet
139 74 m 1
 131 9 l 1
 77 1 l 1
 83 66 l 1
 139 74 l 1
EndSplineSet
EndChar
StartChar: zero
Encoding: 48 48 54
Width: 604
Flags: MW
HStem: -3 36<240.5 353.5 240.5 365> 657 37<263.5 375.5>
VStem: 71 35<252 418.5 252 424> 511 35<271 438.5>
LayerCount: 2
Back
Fore
SplineSet
297 -3 m 0
 166 -3 71 151 71 327 c 0
 71 521 181 694 321 694 c 0
 452 694 546 541 546 362 c 0
 546 166 433 -3 297 -3 c 0
321 657 m 0
 206 657 106 508 106 329 c 0
 106 175 184 33 297 33 c 0
 410 33 511 182 511 360 c 0
 511 517 430 657 321 657 c 0
EndSplineSet
EndChar
StartChar: one
Encoding: 49 49 55
Width: 404
Flags: MW
HStem: 0 35<89 205 241 333 81 205> 656 20G<251 251>
VStem: 210 36
LayerCount: 2
Back
Fore
SplineSet
241 35 m 1
 341 35 l 1
 333 0 l 1
 81 0 l 1
 89 35 l 1
 205 35 l 1
 215 595 l 1
 93 484 l 1
 70 511 l 1
 251 676 l 1
 241 35 l 1
EndSplineSet
EndChar
StartChar: two
Encoding: 50 50 56
Width: 514
Flags: MW
HStem: 0 35<102 452 68 459> 646 35<220.5 296>
VStem: 68 34<0 35 35 35 35 96.5> 416 35<487.5 553 471.5 566.5>
LayerCount: 2
Back
Fore
SplineSet
102 35 m 1
 459 35 l 1
 452 0 l 1
 68 0 l 1
 68 18 l 2
 68 175 129 234 243 311 c 0
 364 393 416 454 416 521 c 0
 416 612 326 646 266 646 c 0
 175 646 115 583 93 554 c 1
 69 580 l 1
 97 616 163 681 266 681 c 0
 408 681 451 585 451 521 c 0
 451 422 355 344 261 281 c 0
 160 214 110 168 102 35 c 1
EndSplineSet
EndChar
StartChar: three
Encoding: 51 51 57
Width: 539
Flags: MW
HStem: -4 35<238 275.5 238 314.5> 655 36<233.5 316>
VStem: 424 38<510.5 573> 441 38<126 247.5 126 262>
LayerCount: 2
Back
Fore
SplineSet
329 390 m 1xe0
 436 356 479 294 479 201 c 0
 479 51 354 -4 275 -4 c 0
 192 -4 105 35 73 121 c 1
 106 136 l 1
 132 74 201 31 275 31 c 0
 276 31 441 35 441 201 c 0xd0
 441 323 341 363 231 367 c 1
 230 403 l 1
 351 415 424 474 424 547 c 0
 424 599 364 655 268 655 c 0
 199 655 146 616 124 597 c 1
 98 623 l 1
 124 646 185 691 268 691 c 0
 377 691 462 627 462 547 c 0
 462 470 408 416 329 390 c 1xe0
EndSplineSet
EndChar
StartChar: four
Encoding: 52 52 58
Width: 508
Flags: MW
HStem: 2 21G<358 358> 176 32 650 20G<392 392>
VStem: 358 34<9 9 9 173 207 566 566 566>
LayerCount: 2
Back
Fore
SplineSet
392 9 m 1
 358 2 l 1
 358 174 l 1
 49 179 l 1
 392 670 l 1
 392 206 l 1
 459 205 l 1
 451 172 l 1
 392 173 l 1
 392 9 l 1
111 210 m 1
 358 207 l 1
 358 566 l 1
 111 210 l 1
EndSplineSet
EndChar
StartChar: five
Encoding: 53 53 59
Width: 552
Flags: MW
HStem: 0 34<238 263 235.5 332.5> 449 34<265.5 337> 645 34<161 465 161 161>
VStem: 464 33<260 260>
LayerCount: 2
Back
Fore
SplineSet
263 0 m 0
 213 0 125 28 72 122 c 1
 104 134 l 1
 138 66 208 34 263 34 c 0
 387 33 463 144 464 260 c 0
 465 382 378 449 296 449 c 0
 230 449 167 412 135 365 c 1
 101 377 l 1
 131 679 l 1
 472 679 l 1
 465 645 l 1
 161 645 l 1
 139 422 l 1
 181 454 235 483 296 483 c 0
 422 483 496 370 497 260 c 0
 498 115 402 0 263 0 c 0
EndSplineSet
EndChar
StartChar: six
Encoding: 54 54 60
Width: 536
Flags: MW
HStem: -5 34<238 303.5 238 306.5> 405 35<258.5 300 258.5 308.5> 667 20G<349 349>
VStem: 63 34<177 258.5 156 346> 446 33<154 316.5>
LayerCount: 2
Back
Fore
SplineSet
349 687 m 1
 361 656 l 1
 264 612 159 506 115 382 c 1
 165 412 227 440 290 440 c 0
 310 440 479 433 479 240 c 0
 479 35 333 -5 280 -5 c 0
 130 -5 63 109 63 245 c 0
 63 447 175 607 349 687 c 1
102 324 m 1
 98 300 97 272 97 245 c 0
 97 67 196 29 280 29 c 0
 327 29 446 68 446 240 c 0
 446 393 327 405 290 405 c 0
 189 405 121 347 102 324 c 1
EndSplineSet
EndChar
StartChar: seven
Encoding: 55 55 61
Width: 491
Flags: MW
HStem: 4 21G<145 145> 647 35<76 434 76 76>
LayerCount: 2
Back
Fore
SplineSet
145 4 m 1
 115 20 l 1
 434 647 l 1
 76 647 l 1
 68 682 l 1
 488 682 l 1
 145 4 l 1
EndSplineSet
EndChar
StartChar: eight
Encoding: 56 56 62
Width: 537
Flags: MW
HStem: -3 36<226 312.5 226 331.5> 656 38<240.5 322.5>
VStem: 69 36<130 176> 103 35<493 561.5 493 575.5> 423 36<537 578.5> 441 36<132 225.5 132 230>
LayerCount: 2
Back
Fore
SplineSet
273 -3 m 0xe4
 154 -3 69 73 69 176 c 0xe4
 72 280 153 336 227 373 c 1
 161 402 103 447 103 521 c 0
 103 630 183 694 284 694 c 0
 386 694 459 629 459 537 c 0xd8
 456 457 397 412 332 380 c 1
 423 334 477 265 477 186 c 0
 477 78 390 -3 273 -3 c 0xe4
273 358 m 1
 194 326 105 281 105 170 c 0
 105 90 179 33 273 33 c 0
 352 33 441 80 441 183 c 0
 441 277 353 334 273 358 c 1
288 396 m 1
 375 434 423 466 423 544 c 0
 423 613 361 656 284 656 c 0
 197 656 138 598 138 525 c 0xd8
 138 461 190 423 288 396 c 1
EndSplineSet
EndChar
StartChar: nine
Encoding: 57 57 63
Width: 536
Flags: MW
HStem: 0 21G<194 194> 249 34<241.5 283> 659 35<238 303.5>
VStem: 63 34<372.5 523> 446 33<430.5 512.5 327 533>
LayerCount: 2
Back
Fore
SplineSet
194 0 m 1
 181 32 l 1
 290 78 380 179 428 307 c 1
 378 277 315 249 251 249 c 0
 232 249 63 255 63 449 c 0
 63 597 155 694 264 694 c 0
 413 694 479 581 479 444 c 0
 479 210 335 55 194 0 c 1
440 364 m 1
 443 388 446 417 446 444 c 0
 446 622 346 659 261 659 c 0
 215 659 97 621 97 449 c 0
 97 296 215 283 251 283 c 0
 352 283 420 341 440 364 c 1
EndSplineSet
EndChar
StartChar: colon
Encoding: 58 58 71
Width: 240
Flags: MW
HStem: 1 21G<77 77> 422 20G<166 166>
LayerCount: 2
Back
Fore
SplineSet
166 442 m 1
 160 377 l 1
 105 369 l 1
 111 433 l 1
 166 442 l 1
138 74 m 1
 131 9 l 1
 77 1 l 1
 83 66 l 1
 138 74 l 1
EndSplineSet
EndChar
StartChar: semicolon
Encoding: 59 59 111
Width: 322
Flags: MW
HStem: -125 21G<132 132> 424 20G<237 237>
LayerCount: 2
Back
Fore
SplineSet
237 444 m 1
 231 379 l 1
 176 371 l 1
 182 435 l 1
 237 444 l 1
161 59 m 1
 220 28 l 1
 132 -125 l 1
 100 -106 l 1
 156 -6 l 1
 119 16 l 1
 161 59 l 1
EndSplineSet
EndChar
StartChar: less
Encoding: 60 60 109
Width: 558
Flags: MW
HStem: 2 21G<452 452> 480 20G<469 469>
LayerCount: 2
Back
Fore
SplineSet
452 2 m 1
 83 251 l 1
 469 500 l 1
 490 471 l 1
 147 250 l 1
 471 31 l 1
 452 2 l 1
EndSplineSet
EndChar
StartChar: equal
Encoding: 61 61 90
Width: 495
Flags: MW
HStem: 152 34<90 418 82 425> 311 36<90 418 82 425>
LayerCount: 2
Back
Fore
SplineSet
418 311 m 1
 82 311 l 1
 90 347 l 1
 425 347 l 1
 418 311 l 1
418 152 m 1
 82 152 l 1
 90 186 l 1
 425 186 l 1
 418 152 l 1
EndSplineSet
EndChar
StartChar: greater
Encoding: 62 62 65
Width: 558
Flags: MW
HStem: 2 21G<103 103> 480 20G<119 119>
LayerCount: 2
Back
Fore
SplineSet
103 2 m 1
 82 31 l 1
 424 252 l 1
 102 472 l 1
 119 500 l 1
 489 251 l 1
 103 2 l 1
EndSplineSet
EndChar
StartChar: question
Encoding: 63 63 108
Width: 532
Flags: MW
HStem: 2 21G<157 157> 686 36<209.5 319.5 204 322>
VStem: 439 35<478 558.5>
LayerCount: 2
Back
Fore
SplineSet
200 73 m 1
 194 9 l 1
 157 2 l 1
 163 66 l 1
 200 73 l 1
176 201 m 1
 332 341 l 2
 378 383 439 438 439 518 c 0
 439 599 390 686 254 686 c 0
 165 686 110 621 90 592 c 1
 65 616 l 1
 91 652 154 722 254 722 c 0
 385 722 474 639 474 518 c 0
 474 418 403 356 352 311 c 2
 193 170 l 1
 176 201 l 1
EndSplineSet
EndChar
StartChar: at
Encoding: 64 64 85
Width: 818
Flags: MW
HStem: -99 34<358 476.5 358 488.5> 98 35<616 659 586.5 666> 112 35<329.5 373.5> 391 34<369 419> 586 36<352.5 529.5 330.5 534.5>
VStem: 68 35<155.5 357.5> 240 35<206 274.5 206 285> 737 36<243.5 360.5>
LayerCount: 2
Back
Fore
SplineSet
426 -65 m 0xdf
 527 -65 600 -23 634 2 c 1
 670 -15 l 1
 638 -40 551 -99 426 -99 c 0
 230 -99 68 59 68 252 c 0
 68 463 226 622 435 622 c 0
 624 622 773 477 773 286 c 0
 773 182 716 98 616 98 c 0xdf
 547 99 495 139 475 198 c 1
 442 153 397 112 350 112 c 0
 285 112 240 157 240 236 c 0
 240 334 311 425 407 425 c 0
 438 425 469 418 498 397 c 1
 476 369 l 1
 452 383 431 391 407 391 c 0
 331 391 275 313 275 236 c 0
 275 176 309 147 350 147 c 0xbf
 410 147 460 235 479 276 c 1
 512 265 l 1
 508 250 508 240 508 226 c 0
 508 174 555 133 618 133 c 0
 700 133 737 201 737 286 c 0
 737 435 634 586 435 586 c 0
 270 586 103 472 103 252 c 0
 103 45 290 -65 426 -65 c 0xdf
EndSplineSet
EndChar
StartChar: A
Encoding: 65 65 1
Width: 613
Flags: MW
HStem: 4 21G<87 87> 659 20G<355 355>
LayerCount: 2
Back
Fore
SplineSet
355 679 m 1
 568 29 l 1
 538 7 l 1
 451 271 l 1
 164 211 l 1
 87 4 l 1
 54 22 l 1
 120 201 l 1
 72 191 l 1
 64 227 l 1
 137 241 l 1
 296 668 l 1
 355 679 l 1
180 251 m 1
 439 304 l 1
 327 646 l 1
 180 251 l 1
EndSplineSet
EndChar
StartChar: B
Encoding: 66 66 28
Width: 592
Flags: MW
HStem: 0 35<103 103 103 126> 342 22 342 34<103 257 103 257 257 299.5> 646 35<103 103 103 275>
VStem: 68 35<35 342 35 376 376 646> 452 35<480.5 541> 514 35<124 249.5 111.5 259>
LayerCount: 2
Back
Fore
SplineSet
347 364 m 1xde
 455 366 549 298 549 201 c 0
 549 22 253 0 126 0 c 2
 68 0 l 1
 68 681 l 1
 275 681 l 2
 408 681 487 616 487 509 c 0
 487 452 464 388 347 364 c 1xde
103 342 m 1
 103 35 l 1
 193 31 514 49 514 199 c 0
 514 319 381 342 303 342 c 2
 103 342 l 1
103 646 m 1
 103 376 l 1
 257 376 l 2xbe
 342 376 452 403 452 509 c 0
 452 573 421 646 275 646 c 2
 103 646 l 1
EndSplineSet
EndChar
StartChar: C
Encoding: 67 67 29
Width: 621
Flags: MW
HStem: -1 34<265 383.5 265 384.5> 647 34<270 374 259 384.5>
VStem: 53 33<221 362.5 221 370.5>
LayerCount: 2
Back
Fore
SplineSet
334 -1 m 0
 181 -1 53 125 53 290 c 0
 53 451 171 681 347 681 c 0
 401 681 458 661 508 623 c 1
 508 657 l 1
 535 657 l 1
 535 555 l 1
 508 555 l 1
 508 575 l 1
 479 609 428 647 341 647 c 0
 199 647 86 433 86 292 c 0
 86 150 196 33 334 33 c 0
 433 33 508 70 552 147 c 1
 575 124 l 1
 525 45 435 -1 334 -1 c 0
EndSplineSet
EndChar
StartChar: F
Encoding: 70 70 52
Width: 495
Flags: MW
HStem: 2 21G<63 63> 327 38<100 439 100 446> 644 37<100 491 100 100>
VStem: 63 37<9 327 365 644>
LayerCount: 2
Back
Fore
SplineSet
491 644 m 1
 100 644 l 1
 100 365 l 1
 446 365 l 1
 439 327 l 1
 100 327 l 1
 100 9 l 1
 63 2 l 1
 63 681 l 1
 499 681 l 1
 491 644 l 1
EndSplineSet
EndChar
StartChar: G
Encoding: 71 71 32
Width: 734
Flags: MW
HStem: -2 35<270 423 270 470> 243 34<549.5 577> 648 34<281 438.5>
VStem: 61 36<265.5 392.5 265.5 420.5>
LayerCount: 2
Back
Fore
SplineSet
648 238 m 1
 635 178 585 -2 355 -2 c 0
 183 -2 61 149 61 341 c 0
 61 500 187 682 375 682 c 0
 516 682 612 597 647 489 c 1
 613 482 l 1
 584 584 502 648 375 648 c 0
 180 648 97 444 97 341 c 0
 97 190 185 33 355 33 c 0
 491 33 581 110 615 241 c 1
 594 243 580 243 574 243 c 0
 516 243 458 235 418 219 c 1
 418 256 l 1
 464 269 522 277 577 277 c 0
 614 277 652 273 684 267 c 1
 684 231 l 1
 676 233 663 237 648 238 c 1
EndSplineSet
EndChar
StartChar: H
Encoding: 72 72 33
Width: 673
Flags: MW
HStem: 3 21G<67 67 579 579> 659 20G<104 104 616 616>
VStem: 67 37<18 295 333 672 672 672> 579 37<18 361 361 361 399 672 672 672>
LayerCount: 2
Back
Fore
SplineSet
579 672 m 1
 616 679 l 1
 616 18 l 1
 579 3 l 1
 579 361 l 1
 104 295 l 1
 104 18 l 1
 67 3 l 1
 67 672 l 1
 104 679 l 1
 104 333 l 1
 579 399 l 1
 579 672 l 1
EndSplineSet
EndChar
StartChar: J
Encoding: 74 74 35
Width: 459
Flags: MW
HStem: 1 32<183 262 183 272> 641 38<195 354 195 444 391 444 391 391>
VStem: 53 37<157 183 183 183> 354 37<157 641>
LayerCount: 2
Back
Fore
SplineSet
195 679 m 1
 444 679 l 1
 444 641 l 1
 391 641 l 1
 391 157 l 2
 391 65 322 1 222 1 c 0
 124 1 53 67 53 157 c 2
 53 183 l 1
 90 191 l 1
 90 157 l 2
 90 86 144 33 222 33 c 0
 302 33 354 84 354 157 c 2
 354 641 l 1
 195 641 l 1
 195 679 l 1
EndSplineSet
EndChar
StartChar: K
Encoding: 75 75 36
Width: 567
Flags: MW
HStem: 2 21G<68 68> 659 20G<103 103>
VStem: 68 35<9 304 368 672 672 672>
LayerCount: 2
Back
Fore
SplineSet
518 32 m 1
 498 4 l 1
 103 304 l 1
 103 9 l 1
 68 2 l 1
 68 672 l 1
 103 679 l 1
 103 368 l 1
 470 675 l 1
 492 649 l 1
 118 336 l 1
 518 32 l 1
EndSplineSet
EndChar
StartChar: L
Encoding: 76 76 37
Width: 477
Flags: MW
HStem: 1 21G<68 68> 15 38 656 20G<105 105>
VStem: 68 37<40 669 669 669>
LayerCount: 2
Back
Fore
SplineSet
68 1 m 1
 68 669 l 1
 105 676 l 1
 105 40 l 1
 457 66 l 1
 461 30 l 1
 68 1 l 1
EndSplineSet
EndChar
StartChar: M
Encoding: 77 77 38
Width: 855
Flags: MW
HStem: 1 21G<388 388 778 778> 660 20G<669 669>
LayerCount: 2
Back
Fore
SplineSet
646 622 m 1
 450 9 l 1
 388 1 l 1
 215 607 l 1
 88 9 l 1
 52 2 l 1
 193 672 l 1
 231 679 l 1
 418 20 l 1
 627 672 l 1
 669 680 l 1
 816 9 l 1
 778 1 l 1
 646 622 l 1
EndSplineSet
EndChar
StartChar: N
Encoding: 78 78 39
Width: 605
Flags: MW
HStem: 1 21G<495 495> 660 20G<114 114>
VStem: 68 35 513 34<45 672 672 672>
LayerCount: 2
Back
Fore
SplineSet
513 672 m 1
 547 679 l 1
 547 12 l 1
 495 1 l 1
 103 631 l 1
 103 11 l 1
 69 3 l 1
 68 666 l 1
 114 680 l 1
 513 45 l 1
 513 672 l 1
EndSplineSet
EndChar
StartChar: P
Encoding: 80 80 41
Width: 535
Flags: MW
HStem: 2 21G<68 68> 245 36<104 104> 642 37<155.5 162>
VStem: 68 36<9 245 281 642> 474 37<421 518.5>
LayerCount: 2
Back
Fore
SplineSet
104 245 m 1
 104 9 l 1
 68 2 l 1
 68 675 l 1
 92 677 138 679 173 679 c 0
 312 679 511 651 511 476 c 0
 511 313 283 251 104 245 c 1
104 642 m 1
 104 281 l 1
 336 291 474 370 474 472 c 0
 474 565 409 642 162 642 c 2
 104 642 l 1
EndSplineSet
EndChar
StartChar: Q
Encoding: 81 81 42
Width: 711
Flags: MW
HStem: -33 21G<652 652> -1 34<264.5 357 264.5 363> 644 35<302.5 449>
VStem: 52 42<235 404 235 415> 620 41<313 432>
LayerCount: 2
Back
Fore
SplineSet
538 83 m 1
 667 -1 l 1
 652 -33 l 1
 510 61 l 1
 455 22 393 -1 333 -1 c 0
 172 -1 52 143 52 315 c 0
 52 515 203 679 379 679 c 0
 541 679 661 537 661 367 c 0
 661 259 614 158 538 83 c 1
399 177 m 1
 509 107 l 1
 577 170 620 263 620 360 c 0
 620 504 521 644 377 644 c 0
 228 644 94 495 94 313 c 0
 94 157 196 33 333 33 c 0
 381 33 434 53 482 84 c 1
 366 158 l 1
 399 177 l 1
EndSplineSet
EndChar
StartChar: R
Encoding: 82 82 43
Width: 584
Flags: MW
HStem: 2 21G<68 68> 257 26 649 38<105 241>
VStem: 68 37<283 649 283 683 283 683> 482 36<439 523.5>
LayerCount: 2
Back
Fore
SplineSet
105 649 m 1
 105 283 l 1
 319 291 482 372 482 476 c 0
 482 571 412 649 158 649 c 2
 105 649 l 1
104 242 m 1
 104 9 l 1
 68 2 l 1
 68 683 l 1
 90 686 136 686 170 687 c 0
 312 687 518 658 518 480 c 0
 518 398 438 318 310 278 c 1
 376 238 464 162 537 31 c 1
 510 6 l 1
 430 156 341 218 291 244 c 0
 274 253 244 257 221 257 c 0
 196 257 145 250 104 242 c 1
EndSplineSet
EndChar
StartChar: T
Encoding: 84 84 45
Width: 512
Flags: MW
HStem: 2 21G<233 233> 644 37<11 233 11 509 271 271 271 509>
VStem: 233 38<9 644 9 644 9 644>
LayerCount: 2
Back
Fore
SplineSet
233 2 m 1
 233 644 l 1
 11 644 l 1
 11 681 l 1
 509 681 l 1
 509 644 l 1
 271 644 l 1
 271 9 l 1
 233 2 l 1
EndSplineSet
EndChar
StartChar: V
Encoding: 86 86 47
Width: 530
Flags: MW
HStem: 1 21G<227 227> 657 20G<49 49 489 489>
LayerCount: 2
Back
Fore
SplineSet
251 46 m 1
 489 677 l 1
 525 663 l 1
 277 10 l 1
 227 1 l 1
 15 662 l 1
 49 677 l 1
 251 46 l 1
EndSplineSet
EndChar
StartChar: X
Encoding: 88 88 49
Width: 636
Flags: MW
HStem: 0 21G 661 20G<106 106 537 537>
LayerCount: 2
Back
Fore
SplineSet
559 21 m 1
 529 0 l 1
 313 313 l 1
 83 0 l 1
 53 22 l 1
 291 346 l 1
 75 660 l 1
 106 681 l 1
 314 377 l 1
 537 681 l 1
 567 659 l 1
 336 345 l 1
 559 21 l 1
EndSplineSet
EndChar
StartChar: Z
Encoding: 90 90 51
Width: 611
Flags: MW
HStem: 0 42<72 557 100 549> 639 42<92 518 83 547>
LayerCount: 2
Back
Fore
SplineSet
72 0 m 1
 52 44 l 1
 518 639 l 1
 83 639 l 1
 92 681 l 1
 547 681 l 1
 567 637 l 1
 100 42 l 1
 557 42 l 1
 549 0 l 1
 72 0 l 1
EndSplineSet
EndChar
StartChar: bracketleft
Encoding: 91 91 77
Width: 305
Flags: MW
HStem: -129 35<106 226> 782 36<106 242 106 106>
VStem: 71 35<-94 782 -94 818>
LayerCount: 2
Back
Fore
SplineSet
226 -129 m 1
 71 -129 l 1
 71 818 l 1
 249 818 l 1
 242 782 l 1
 106 782 l 1
 106 -94 l 1
 233 -94 l 1
 226 -129 l 1
EndSplineSet
EndChar
StartChar: backslash
Encoding: 92 92 81
Width: 482
Flags: MW
HStem: 0 21G<419 459 419 419> 681 20G<35 74 74 74>
LayerCount: 2
Back
Fore
SplineSet
74 701 m 1
 459 0 l 1
 419 0 l 1
 35 701 l 1
 74 701 l 1
EndSplineSet
EndChar
StartChar: bracketright
Encoding: 93 93 76
Width: 305
Flags: MW
HStem: -129 35<75 210 75 246 68 210> 782 36<92 210 83 246>
VStem: 210 36<-94 782 782 782>
LayerCount: 2
Back
Fore
SplineSet
92 818 m 1
 246 818 l 1
 246 -129 l 1
 68 -129 l 1
 75 -94 l 1
 210 -94 l 1
 210 782 l 1
 83 782 l 1
 92 818 l 1
EndSplineSet
EndChar
StartChar: asciicircum
Encoding: 94 94 127
Width: 490
Flags: MW
HStem: 751 21G<141 141> 874 20G<261 261>
LayerCount: 2
Back
Fore
SplineSet
141 751 m 1
 119 779 l 1
 261 894 l 1
 380 779 l 1
 357 753 l 1
 257 843 l 1
 141 751 l 1
EndSplineSet
EndChar
StartChar: underscore
Encoding: 95 95 95
Width: 466
Flags: MW
HStem: -56 35<-9 473 -16 480>
LayerCount: 2
Back
Fore
SplineSet
473 -56 m 1
 -16 -56 l 1
 -9 -21 l 1
 480 -21 l 1
 473 -56 l 1
EndSplineSet
EndChar
StartChar: grave
Encoding: 96 96 128
Width: 490
Flags: MW
HStem: 758 21G<300 300> 893 20G<213 213>
LayerCount: 2
Back
Fore
SplineSet
330 778 m 1
 300 758 l 1
 171 888 l 1
 213 913 l 1
 330 778 l 1
EndSplineSet
EndChar
StartChar: a
Encoding: 97 97 2
Width: 494
Flags: MW
HStem: 2 21G<399 399> 7 37<236 265.5> 477 36<219 311.5>
VStem: 52 39<184 270 184 273.5> 399 38<10 65 65 65>
LayerCount: 2
Back
Fore
SplineSet
437 475 m 1x78
 437 10 l 1
 399 2 l 1xb8
 399 65 l 1
 357 39 293 7 238 7 c 0
 131 7 52 95 52 222 c 0
 52 325 116 513 289 513 c 0
 342 513 392 497 437 475 c 1x78
236 44 m 0x78
 301 44 372 91 397 109 c 1
 402 450 l 1
 378 459 329 477 294 477 c 0
 144 477 91 316 91 224 c 0
 91 144 129 46 236 44 c 0x78
EndSplineSet
EndChar
StartChar: b
Encoding: 98 98 4
Width: 518
Flags: MW
HStem: 1 35<232.5 320 220 366> 452 38<277 362> 678 20G<105 105>
VStem: 67 38<9 35 2 69 69 293 382 689 689 689> 442 35<242.5 302.5>
LayerCount: 2
Back
Fore
SplineSet
323 490 m 0
 430 490 477 372 477 269 c 0
 477 216 473 1 259 1 c 0
 206 1 144 20 105 35 c 1
 105 2 l 1
 67 9 l 1
 67 689 l 1
 105 698 l 1
 105 382 l 1
 151 448 231 490 323 490 c 0
251 36 m 0
 389 36 442 136 442 269 c 0
 442 336 415 452 309 452 c 0
 191 452 105 381 105 293 c 2
 105 69 l 1
 127 58 189 36 251 36 c 0
EndSplineSet
EndChar
StartChar: c
Encoding: 99 99 5
Width: 497
Flags: MW
HStem: 0 33<279 279> 469 33<222.5 301>
VStem: 53 35<153 266.5 139 271.5>
LayerCount: 2
Back
Fore
SplineSet
278 33 m 0
 342 36 397 67 427 115 c 1
 452 90 l 1
 415 35 353 3 279 0 c 0
 162 -6 53 91 53 215 c 0
 53 328 140 502 275 502 c 0
 333 502 386 478 420 438 c 1
 394 413 l 1
 367 450 325 469 277 469 c 0
 168 469 88 316 88 217 c 0
 88 61 225 31 278 33 c 0
EndSplineSet
EndChar
StartChar: f
Encoding: 102 102 8
Width: 322
Flags: MW
HStem: 2 21G<101 101> 470 32<21 101 21 101 15 101 144 270> 667 35<296 296>
VStem: 101 38<9 470 9 470 9 470 9 575.5>
LayerCount: 2
Back
Fore
SplineSet
313 702 m 1
 296 667 l 1
 171 668 144 621 144 502 c 1
 277 502 l 1
 270 470 l 1
 139 470 l 1
 139 9 l 1
 101 2 l 1
 101 470 l 1
 15 470 l 1
 21 502 l 1
 101 502 l 1
 101 649 163 702 295 702 c 2
 313 702 l 1
EndSplineSet
EndChar
StartChar: g
Encoding: 103 103 9
Width: 512
Flags: MW
HStem: -193 38<223.5 306> 0 34<193 244 187 277.5> 465 36<230.5 313 218 314> 486 20G<455 455>
VStem: 53 34<194.5 293.5 194.5 305> 413 36
LayerCount: 2
Back
Fore
SplineSet
455 506 m 1xdc
 444 9 l 2
 441 -121 368 -193 244 -193 c 0
 200 -193 157 -187 125 -181 c 1
 132 -144 l 1
 162 -149 203 -155 244 -155 c 0
 389 -155 405 -40 406 8 c 2
 408 103 l 1
 367 35 306 0 249 0 c 0
 137 0 53 104 53 240 c 0
 53 370 146 501 290 501 c 0xec
 336 501 382 479 417 459 c 1
 417 500 l 1
 455 506 l 1xdc
413 269 m 2xdc
 413 425 l 1
 386 445 336 465 292 465 c 0xec
 169 465 87 354 87 233 c 0
 87 156 130 34 244 34 c 0
 322 35 413 91 413 269 c 2xdc
EndSplineSet
EndChar
StartChar: h
Encoding: 104 104 3
Width: 494
Flags: MW
HStem: 2 21G<68 68 415 415> 470 35<280.5 359> 678 20G<105 105>
VStem: 68 37<9 194 315 689 689 689> 416 35<107.5 239>
LayerCount: 2
Back
Fore
SplineSet
105 698 m 1
 105 315 l 1
 142 397 239 505 322 505 c 0
 423 505 451 380 451 137 c 0
 451 78 451 32 450 9 c 1
 415 2 l 1
 416 17 416 61 416 131 c 0
 416 347 396 470 322 470 c 0
 228 470 141 329 122 291 c 0
 110 263 105 228 105 194 c 2
 105 9 l 1
 68 2 l 1
 68 689 l 1
 105 698 l 1
EndSplineSet
EndChar
StartChar: i
Encoding: 105 105 10
Width: 183
Flags: MW
HStem: 2 21G<71 71> 675 20G<115 115>
VStem: 71 41<9 493 493 493>
LayerCount: 2
Back
Fore
SplineSet
71 493 m 1
 112 498 l 1
 112 9 l 1
 71 2 l 1
 71 493 l 1
115 695 m 1
 111 631 l 1
 72 624 l 1
 78 687 l 1
 115 695 l 1
EndSplineSet
EndChar
StartChar: j
Encoding: 106 106 11
Width: 303
Flags: MW
HStem: -187 32<97 151 97 169> 683 20G<239 239>
VStem: 195 38<503 511>
LayerCount: 2
Back
Fore
SplineSet
239 703 m 1
 232 639 l 1
 196 632 l 1
 200 696 l 1
 239 703 l 1
-34 -28 m 1
 3 -21 l 1
 24 -67 70 -155 124 -155 c 0
 178 -155 202 -92 202 -16 c 0
 202 2 199 231 195 503 c 1
 233 511 l 1
 238 234 241 7 241 -10 c 0
 241 -81 214 -187 124 -187 c 0
 38 -187 -19 -66 -34 -28 c 1
EndSplineSet
EndChar
StartChar: k
Encoding: 107 107 12
Width: 484
Flags: MW
HStem: 2 21G<70 70> 678 20G<106 106>
VStem: 69 37
LayerCount: 2
Back
Fore
SplineSet
242 303 m 1
 250 294 353 167 458 30 c 1
 430 5 l 1
 358 115 264 227 214 280 c 1
 170 247 135 221 107 205 c 1
 108 9 l 1
 70 2 l 1
 68 689 l 1
 106 698 l 1
 107 245 l 1
 184 285 330 425 412 531 c 1
 442 510 l 1
 393 449 286 338 242 303 c 1
EndSplineSet
EndChar
StartChar: l
Encoding: 108 108 13
Width: 216
Flags: MW
HStem: 2 21G<91 91> 678 20G<129 129>
VStem: 91 38<9 689 689 689>
LayerCount: 2
Back
Fore
SplineSet
91 689 m 1
 129 698 l 1
 129 9 l 1
 91 2 l 1
 91 689 l 1
EndSplineSet
EndChar
StartChar: m
Encoding: 109 109 14
Width: 807
Flags: MW
HStem: 2 21G<65 65 406 406 721 721> 481 30<289.5 332.5>
VStem: 65 37<9 255 344 482 482 482> 406 38<9 274 9 336> 721 38<9 326 326 329 9 391.5>
LayerCount: 2
Back
Fore
SplineSet
116 313 m 0
 103 294 102 255 102 255 c 1
 102 9 l 1
 65 2 l 1
 65 482 l 1
 102 490 l 1
 102 344 l 1
 143 418 234 511 313 511 c 0
 376 511 416 489 440 383 c 1
 482 457 564 511 627 511 c 0
 686 511 759 480 759 329 c 2
 759 9 l 1
 721 2 l 1
 721 326 l 2
 721 457 667 479 627 479 c 0
 567 479 444 399 444 274 c 2
 444 9 l 1
 406 2 l 1
 406 336 l 2
 406 467 352 481 313 481 c 0
 266 481 188 430 116 313 c 0
EndSplineSet
EndChar
StartChar: p
Encoding: 112 112 17
Width: 508
Flags: MW
HStem: -199 21G<68 68> 7 34<229 321.5 224.5 333> 460 36<267 311 267 354> 477 20G<105 105>
VStem: 68 37<-192 42 80 364 412 488 488 488> 432 34<206.5 305.5>
LayerCount: 2
Back
Fore
SplineSet
311 496 m 0xec
 419 493 466 375 466 271 c 0
 466 139 411 7 255 7 c 0
 203 7 144 26 105 42 c 1
 105 -192 l 1
 68 -199 l 1
 68 488 l 1
 105 497 l 1xdc
 105 412 l 1
 156 458 223 496 311 496 c 0xec
256 41 m 0
 387 41 432 146 432 267 c 0
 432 344 408 460 300 460 c 0
 188 460 124 392 105 364 c 1
 105 80 l 1
 127 70 193 41 256 41 c 0
EndSplineSet
EndChar
StartChar: q
Encoding: 113 113 18
Width: 513
Flags: MW
HStem: -202 21G<394 394> -9 32<207 289.5> 463 33<258 341> 490 20G<419 419>
VStem: 52 33<152 289.5 152 300> 398 45
LayerCount: 2
Back
Fore
SplineSet
394 -202 m 1xdc
 403 56 l 1
 369 6 324 -9 255 -9 c 0
 138 -9 52 86 52 208 c 0
 52 392 171 496 330 496 c 0xec
 352 496 382 493 419 487 c 1
 419 510 l 1
 455 508 l 1
 432 -195 l 1
 394 -202 l 1xdc
408 159 m 2
 418 454 l 1
 389 459 352 463 330 463 c 0
 186 463 85 373 85 206 c 0
 85 98 158 23 256 23 c 0
 346 23 405 72 408 159 c 2
EndSplineSet
EndChar
StartChar: r
Encoding: 114 114 19
Width: 391
Flags: MW
HStem: 2 21G<69 69> 466 36<253.5 308.5>
VStem: 69 37<9 252 366 493 493 493> 334 37<404 419 419 433>
LayerCount: 2
Back
Fore
SplineSet
106 500 m 1
 106 366 l 1
 135 421 211 502 296 502 c 0
 338 502 371 474 371 438 c 2
 371 404 l 1
 334 397 l 1
 334 419 l 2
 334 447 329 466 288 466 c 0
 210 466 106 357 106 252 c 2
 106 9 l 1
 69 2 l 1
 69 493 l 1
 106 500 l 1
EndSplineSet
EndChar
StartChar: t
Encoding: 116 116 21
Width: 363
Flags: MW
HStem: 2 21G<166 166> 465 37<22 166 22 166 205 348> 656 20G<205 205>
VStem: 166 39<9 465 9 465 9 465 502 669 669 669>
LayerCount: 2
Back
Fore
SplineSet
348 502 m 1
 348 465 l 1
 205 465 l 1
 205 9 l 1
 166 2 l 1
 166 465 l 1
 22 465 l 1
 22 502 l 1
 166 502 l 1
 166 669 l 1
 205 676 l 1
 205 502 l 1
 348 502 l 1
EndSplineSet
EndChar
StartChar: v
Encoding: 118 118 23
Width: 437
Flags: MW
HStem: 2 21G<202 202> 478 20G<398 398>
LayerCount: 2
Back
Fore
SplineSet
432 483 m 1
 249 11 l 1
 202 2 l 1
 13 483 l 1
 50 497 l 1
 223 41 l 1
 398 498 l 1
 432 483 l 1
EndSplineSet
EndChar
StartChar: w
Encoding: 119 119 24
Width: 643
Flags: MW
HStem: 2 21G<140 140 436 436> 475 20G<78 78>
LayerCount: 2
Back
Fore
SplineSet
460 40 m 1
 592 485 l 1
 632 494 l 1
 481 11 l 1
 436 2 l 1
 334 430 l 1
 187 11 l 1
 140 2 l 1
 42 486 l 1
 78 495 l 1
 167 43 l 1
 314 485 l 1
 356 494 l 1
 460 40 l 1
EndSplineSet
EndChar
StartChar: x
Encoding: 120 120 25
Width: 461
Flags: MW
HStem: 0 21G 480 20G<87 87 410 410>
LayerCount: 2
Back
Fore
SplineSet
421 21 m 1
 391 0 l 1
 231 228 l 1
 42 0 l 1
 14 24 l 1
 210 259 l 1
 57 479 l 1
 87 500 l 1
 234 288 l 1
 410 500 l 1
 438 476 l 1
 256 257 l 1
 421 21 l 1
EndSplineSet
EndChar
StartChar: y
Encoding: 121 121 26
Width: 490
Flags: MW
HStem: -202 21G<160 160> 477 20G<442 442>
LayerCount: 2
Back
Fore
SplineSet
442 497 m 1
 476 480 l 1
 160 -202 l 1
 125 -185 l 1
 237 53 l 1
 24 479 l 1
 59 496 l 1
 256 98 l 1
 442 497 l 1
EndSplineSet
EndChar
StartChar: z
Encoding: 122 122 27
Width: 443
Flags: MW
HStem: 0 37<78 404 51 411> 465 37<65 375 57 402>
LayerCount: 2
Back
Fore
SplineSet
404 0 m 1
 51 0 l 1
 33 35 l 1
 375 465 l 1
 57 465 l 1
 65 502 l 1
 402 502 l 1
 420 468 l 1
 78 37 l 1
 411 37 l 1
 404 0 l 1
EndSplineSet
EndChar
StartChar: braceleft
Encoding: 123 123 83
Width: 364
Flags: MW
HStem: -130 21G<305 305> 803 20G<306 306>
VStem: 146 36<14 225 482 483 483 679> 146 160<482 823 679 823>
LayerCount: 2
Back
Fore
SplineSet
69 337 m 1xe0
 69 371 l 1
 116 390 146 428 146 482 c 2
 146 679 l 2
 146 781 244 818 306 823 c 1xd0
 304 787 l 1
 234 782 182 743 182 679 c 2
 182 483 l 2
 182 452 172 400 114 354 c 1
 152 326 182 281 182 225 c 2
 182 14 l 2
 182 -45 222 -84 307 -94 c 1
 305 -130 l 1
 244 -126 146 -92 146 14 c 2
 146 233 l 2
 146 280 113 322 69 337 c 1xe0
EndSplineSet
EndChar
StartChar: bar
Encoding: 124 124 93
Width: 245
Flags: MW
HStem: -72 21G<108 108> 743 20G<143 143>
VStem: 108 35<-65 -65 -65 756 756 756>
LayerCount: 2
Back
Fore
SplineSet
143 -65 m 1
 108 -72 l 1
 108 756 l 1
 143 763 l 1
 143 -65 l 1
EndSplineSet
EndChar
StartChar: braceright
Encoding: 125 125 82
Width: 364
Flags: MW
HStem: -130 21G<59 59> 803 20G<60 60>
VStem: 59 160<-130 14> 183 36<14 210 210 211 468 679>
LayerCount: 2
Back
Fore
SplineSet
296 356 m 1xe0
 296 322 l 1
 249 304 219 265 219 211 c 2
 219 14 l 2
 219 -88 121 -125 59 -130 c 1xe0
 61 -94 l 1
 131 -89 183 -50 183 14 c 2
 183 210 l 2
 183 241 193 293 251 339 c 1
 213 367 183 412 183 468 c 2
 183 679 l 2xd0
 183 738 143 777 58 787 c 1
 60 823 l 1
 121 819 219 785 219 679 c 2
 219 460 l 2
 219 413 252 371 296 356 c 1xe0
EndSplineSet
EndChar
StartChar: asciitilde
Encoding: 126 126 89
Width: 635
Flags: MW
HStem: 156 36<406.5 449 406.5 471.5> 310 36<176.5 231.5>
LayerCount: 2
Back
Fore
SplineSet
544 321 m 1
 577 305 l 1
 562 261 517 156 426 156 c 0
 366 156 334 201 304 242 c 0
 274 284 251 310 212 310 c 0
 141 310 110 230 100 197 c 1
 69 211 l 1
 87 274 135 346 212 346 c 0
 272 346 304 301 333 261 c 0
 365 219 387 192 426 192 c 0
 472 192 521 250 544 321 c 1
EndSplineSet
EndChar
StartChar: exclamdown
Encoding: 161 161 214
Width: 175
Flags: MW
HStem: -198 21G<62 62> 478 20G<104 104>
VStem: 62 35<-191 335 335 335>
LayerCount: 2
Back
Fore
SplineSet
62 335 m 1
 97 344 l 1
 97 -191 l 1
 62 -198 l 1
 62 335 l 1
61 427 m 1
 67 491 l 1
 104 498 l 1
 97 434 l 1
 61 427 l 1
EndSplineSet
EndChar
StartChar: cent
Encoding: 162 162 99
Width: 496
Flags: MW
HStem: 4 21G<234 234> 101 33<267 301.5> 571 32<280 302.5> 671 20G<282 282>
VStem: 53 35<278 353.5 278 373.5> 235 38 242 31
LayerCount: 2
Back
Fore
SplineSet
267 101 m 1
 265 15 l 1
 234 4 l 1
 236 103 l 1
 118 128 53 221 53 317 c 0
 53 430 123 563 248 601 c 1
 250 681 l 1
 282 691 l 1
 280 603 l 1
 339 603 388 578 420 539 c 1
 393 513 l 1
 368 546 327 571 278 571 c 1
 268 134 l 1
 335 134 394 170 426 216 c 1
 451 191 l 1
 414 136 351 104 267 101 c 1
237 136 m 1
 247 568 l 1
 127 522 88 390 88 317 c 0
 88 239 138 159 237 136 c 1
EndSplineSet
EndChar
StartChar: sterling
Encoding: 163 163 98
Width: 754
Flags: MW
HStem: -10 35<518 563> 74 35<300.5 322.5> 342 34<83 192 83 203 76 192 235 235 235 489> 700 35<345.5 470>
VStem: 182 36<476 562 475.5 572.5> 229 35<186 211.5>
LayerCount: 2
Back
Fore
SplineSet
659 140 m 1
 694 134 l 1
 670 15 584 -10 542 -10 c 0
 492 -10 432 13 379 50 c 0
 356 66 336 74 309 74 c 0
 284 74 219 57 162 5 c 1
 139 30 l 1
 197 77 229 150 229 194 c 0
 229 229 226 265 203 342 c 1
 76 342 l 1
 83 376 l 1
 192 376 l 1
 184 424 182 460 182 492 c 0
 182 653 265 735 415 735 c 0
 580 735 630 611 638 538 c 1
 603 534 l 1
 586 634 530 700 410 700 c 0
 281 700 218 633 218 491 c 0
 218 460 219 425 229 376 c 1
 496 376 l 1
 489 342 l 1
 235 342 l 1
 258 260 264 221 264 204 c 0
 264 168 258 135 236 93 c 1
 270 105 292 109 309 109 c 0
 346 109 371 95 400 77 c 0
 448 47 496 25 540 25 c 0
 606 25 640 64 659 140 c 1
EndSplineSet
EndChar
StartChar: currency
Encoding: 164 164 119
Width: 490
Flags: MW
HStem: 58 21G<78 78> 95 32<232.5 267> 374 32<233.5 267 233.5 284.5> 428 20G<78 78 421 421>
VStem: 94 32<234.5 267.5> 373 32<234.5 268 234.5 285.5>
LayerCount: 2
Back
Fore
SplineSet
405 251 m 0
 405 218 393 184 372 154 c 1
 444 82 l 1
 421 59 l 1
 349 130 l 1
 319 108 284 95 250 95 c 0
 215 95 180 108 150 130 c 1
 78 58 l 1
 55 81 l 1
 128 154 l 1
 106 184 94 218 94 251 c 0
 94 284 108 320 129 350 c 1
 55 425 l 1
 78 448 l 1
 153 373 l 1
 184 395 217 406 250 406 c 0
 284 406 317 395 347 373 c 1
 421 448 l 1
 444 425 l 1
 370 350 l 1
 393 320 405 285 405 251 c 0
250 127 m 0
 319 127 373 182 373 251 c 0
 373 320 319 374 250 374 c 0
 181 374 126 320 126 251 c 0
 126 182 181 127 250 127 c 0
EndSplineSet
EndChar
StartChar: yen
Encoding: 165 165 80
Width: 575
Flags: MW
HStem: 2 21G<267 267> 140 35<120 267 120 267 113 267 302 448> 300 34<120 243 120 267 113 243 327 448> 677 20G<71 111 111 111 471 511 511 511>
VStem: 267 35<9 140 9 140 9 140 175 300>
LayerCount: 2
Back
Fore
SplineSet
267 300 m 1
 113 300 l 1
 120 334 l 1
 243 334 l 1
 71 697 l 1
 111 697 l 1
 286 328 l 1
 471 697 l 1
 511 697 l 1
 327 334 l 1
 456 334 l 1
 448 300 l 1
 302 300 l 1
 302 175 l 1
 456 175 l 1
 448 140 l 1
 302 140 l 1
 302 9 l 1
 267 2 l 1
 267 140 l 1
 113 140 l 1
 120 175 l 1
 267 175 l 1
 267 300 l 1
EndSplineSet
EndChar
StartChar: section
Encoding: 167 167 122
Width: 465
Flags: MW
HStem: 0 34<207.5 292.5 207.5 293.5> 619 31<224 301.5>
VStem: 92 33<522 561.5 501.5 581.5> 375 35<120.5 152.5 104 164>
LayerCount: 2
Back
Fore
SplineSet
410 530 m 1
 374 534 l 2
 375 537 375 541 375 545 c 0
 375 588 341 619 262 619 c 0
 182 619 125 588 125 535 c 0
 125 468 199 447 244 433 c 0
 337 403 409 381 409 285 c 0
 409 265 401 241 385 217 c 1
 400 195 410 169 410 136 c 0
 410 72 345 0 242 0 c 0
 135 0 77 75 64 115 c 1
 100 121 l 1
 123 65 173 34 242 34 c 0
 343 34 375 104 375 137 c 0
 375 191 354 218 245 251 c 0
 140 282 93 320 93 387 c 0
 93 416 105 440 122 460 c 1
 103 483 92 508 92 536 c 0
 92 627 189 650 259 650 c 0
 362 650 411 602 411 543 c 0
 411 537 411 535 410 530 c 1
360 239 m 1
 369 250 374 277 374 286 c 0
 374 340 353 366 244 400 c 0
 209 410 177 424 150 440 c 1
 134 422 127 405 127 386 c 0
 127 321 200 298 245 284 c 0
 284 273 334 254 360 239 c 1
EndSplineSet
EndChar
StartChar: dieresis
Encoding: 168 168 123
Width: 490
Flags: MW
HStem: 596 21G<137 137 303 303> 649 20G<198 198 365 365>
LayerCount: 2
Back
Fore
SplineSet
198 669 m 1
 191 604 l 1
 137 596 l 1
 143 660 l 1
 198 669 l 1
365 669 m 1
 357 604 l 1
 303 596 l 1
 310 660 l 1
 365 669 l 1
EndSplineSet
EndChar
StartChar: copyright
Encoding: 169 169 68
Width: 566
Flags: MW
HStem: 246 27<235.5 342.5 235.5 350> 362 28<260.5 305.5 260.5 306.5> 568 27<254.5 302> 671 27<235.5 342.5>
VStem: 68 27<416.5 527 416.5 534> 168 28<448 487.5 448 510> 483 27<416.5 527>
LayerCount: 2
Back
Fore
SplineSet
289 246 m 0
 167 246 68 348 68 472 c 0
 68 596 167 698 289 698 c 0
 411 698 510 596 510 472 c 0
 510 348 411 246 289 246 c 0
289 671 m 0
 182 671 95 582 95 472 c 0
 95 361 182 273 289 273 c 0
 396 273 483 361 483 472 c 0
 483 582 396 671 289 671 c 0
281 362 m 0
 219 362 168 413 168 473 c 0
 168 547 217 595 292 595 c 0
 317 595 350 585 376 557 c 1
 356 539 l 1
 338 556 312 568 292 568 c 0
 206 568 196 502 196 473 c 0
 196 423 240 390 281 390 c 0
 330 390 357 408 372 444 c 1
 399 435 l 1
 378 387 332 362 281 362 c 0
EndSplineSet
EndChar
StartChar: ordfeminine
Encoding: 170 170 212
Width: 240
Flags: MW
HStem: 369 21G<210 210> 373 30<91.5 129.5> 654 30<105 158.5>
VStem: 3 31<475 523.5 475 552> 210 30
LayerCount: 2
Back
Fore
SplineSet
240 661 m 1x78
 241 376 l 1
 210 369 l 1xb8
 210 403 l 1
 172 382 141 373 118 373 c 0
 51 373 3 429 3 505 c 0
 3 599 61 684 149 684 c 0
 171 684 211 677 240 661 c 1x78
209 441 m 1
 212 639 l 1
 194 649 168 654 149 654 c 0
 56 654 34 541 34 506 c 0
 34 444 67 403 116 403 c 0x78
 152 403 193 428 209 441 c 1
EndSplineSet
EndChar
StartChar: guillemotleft
Encoding: 171 171 87
Width: 599
Flags: MW
HStem: 73 21G<277 277 491 491> 415 20G<294 294 507 507>
LayerCount: 2
Back
Fore
SplineSet
277 73 m 1
 79 251 l 1
 294 435 l 1
 318 409 l 1
 132 251 l 1
 300 100 l 1
 277 73 l 1
491 73 m 1
 293 251 l 1
 507 435 l 1
 531 409 l 1
 346 251 l 1
 514 100 l 1
 491 73 l 1
EndSplineSet
EndChar
StartChar: logicalnot
Encoding: 172 172 213
Width: 506
Flags: MW
HStem: 123 21G<411 411> 276 32<83 412 76 445>
VStem: 411 33<123 134>
LayerCount: 2
Back
Fore
SplineSet
411 123 m 1
 412 276 l 1
 76 276 l 1
 83 308 l 1
 445 308 l 1
 444 134 l 1
 411 123 l 1
EndSplineSet
EndChar
StartChar: uni00AD
Encoding: 173 173 130
Width: 432
Flags: MW
HStem: 236 36<84 359 77 366>
LayerCount: 2
Back
Fore
SplineSet
366 272 m 1
 359 236 l 1
 77 236 l 1
 84 272 l 1
 366 272 l 1
EndSplineSet
EndChar
StartChar: registered
Encoding: 174 174 79
Width: 566
Flags: MW
HStem: 246 27<235.5 342.5 235.5 350> 246 237<233 233 233 350> 567 27<279 304.5> 671 27<235.5 342.5>
VStem: 68 27<416.5 527 416.5 534> 372 27<522.5 544> 483 27<416.5 527>
LayerCount: 2
Back
Fore
SplineSet
289 246 m 0xbe
 167 246 68 348 68 472 c 0
 68 596 167 698 289 698 c 0
 411 698 510 596 510 472 c 0
 510 348 411 246 289 246 c 0xbe
289 671 m 0
 182 671 95 582 95 472 c 0
 95 361 182 273 289 273 c 0
 396 273 483 361 483 472 c 0
 483 582 396 671 289 671 c 0
278 462 m 1
 378 393 l 1
 359 373 l 1
 230 462 l 1
 215 380 l 1
 188 376 l 1
 219 573 l 2
 221 584 223 594 290 594 c 0
 361 594 399 570 399 531 c 0
 399 494 334 474 278 462 c 1
245 564 m 1
 233 483 l 1x7e
 314 489 372 514 372 531 c 0
 372 557 325 567 284 567 c 0
 274 567 264 567 245 564 c 1
EndSplineSet
EndChar
StartChar: macron
Encoding: 175 175 215
Width: 490
Flags: MW
HStem: 611 36<134 367 126 374>
LayerCount: 2
Back
Fore
SplineSet
367 611 m 1
 126 611 l 1
 134 647 l 1
 374 647 l 1
 367 611 l 1
EndSplineSet
EndChar
StartChar: degree
Encoding: 176 176 70
Width: 257
Flags: MW
HStem: 521 37<106.5 155.5 106.5 166.5> 739 38<106.5 155.5>
VStem: 3 37<624.5 673.5 624.5 684.5> 221 38<624.5 673.5>
LayerCount: 2
Back
Fore
SplineSet
131 521 m 0
 60 521 3 578 3 649 c 0
 3 720 60 777 131 777 c 0
 202 777 259 720 259 649 c 0
 259 578 202 521 131 521 c 0
131 739 m 0
 82 739 40 698 40 649 c 0
 40 600 82 558 131 558 c 0
 180 558 221 600 221 649 c 0
 221 698 180 739 131 739 c 0
EndSplineSet
EndChar
StartChar: plusminus
Encoding: 177 177 216
Width: 425
Flags: MW
HStem: 0 33<73 359 80 352> 281 36<67 199 67 199 59 199 234 366 67 234> 432 20G<234 234>
VStem: 199 35<149 281 149 281 149 281 317 444 444 444>
LayerCount: 2
Back
Fore
SplineSet
73 0 m 1
 80 33 l 1
 359 33 l 1
 352 0 l 1
 73 0 l 1
375 317 m 1
 366 281 l 1
 234 281 l 1
 234 149 l 1
 199 142 l 1
 199 281 l 1
 59 281 l 1
 67 317 l 1
 199 317 l 1
 199 444 l 1
 234 452 l 1
 234 317 l 1
 375 317 l 1
EndSplineSet
EndChar
StartChar: twosuperior
Encoding: 178 178 217
Width: 227
Flags: MW
HStem: 457 26<32 221> 807 27<102 137.5>
VStem: 196 26<726.5 761 716 763.5>
LayerCount: 2
Back
Fore
SplineSet
25 755 m 1
 5 776 l 1
 28 806 72 834 118 834 c 0
 198 834 222 778 222 744 c 0
 222 688 163 639 118 610 c 0
 64 576 40 549 32 483 c 1
 227 483 l 1
 221 457 l 1
 6 457 l 1
 6 470 l 2
 6 551 37 588 103 632 c 0
 168 675 196 709 196 744 c 0
 196 783 157 807 118 807 c 0
 86 807 52 795 25 755 c 1
EndSplineSet
EndChar
StartChar: threesuperior
Encoding: 179 179 218
Width: 226
Flags: MW
HStem: 456 26<97 128.5 94.5 138> 654 25<89 128> 805 26<102 134.5>
VStem: 193 35
LayerCount: 2
Back
Fore
SplineSet
37 774 m 1
 18 792 l 1
 37 810 73 831 117 831 c 0
 177 831 220 797 220 751 c 0
 220 721 197 685 154 668 c 1
 201 652 228 611 228 569 c 0
 228 486 160 456 116 456 c 0
 78 456 25 471 5 529 c 1
 30 538 l 1
 40 500 73 482 116 482 c 0
 141 482 202 498 202 569 c 0
 202 617 167 654 89 654 c 1
 89 679 l 1
 130 680 193 697 193 752 c 0
 193 787 154 805 115 805 c 0
 89 805 63 799 37 774 c 1
EndSplineSet
EndChar
StartChar: acute
Encoding: 180 180 136
Width: 490
Flags: MW
HStem: 593 21G<187 187> 710 20G<301 301>
LayerCount: 2
Back
Fore
SplineSet
162 617 m 1
 301 730 l 1
 339 698 l 1
 187 593 l 1
 162 617 l 1
EndSplineSet
EndChar
StartChar: mu
Encoding: 181 181 220
Width: 505
Flags: MW
HStem: -179 21G<139 139> -5 34<211 255> 483 20G<119 119 448 448>
VStem: 68 35<227 333> 408 40<186 496 496 496>
LayerCount: 2
Back
Fore
SplineSet
68 294 m 0
 68 372 78 458 83 496 c 1
 119 503 l 1
 114 467 103 356 103 324 c 0
 103 62 156 29 227 29 c 0
 298 29 368 98 393 134 c 0
 400 145 408 156 408 186 c 2
 408 496 l 1
 448 503 l 1
 448 10 l 1
 404 3 l 1
 404 101 l 1
 351 37 294 -5 216 -5 c 0
 206 -5 139 1 117 53 c 1
 139 -179 l 1
 102 -172 l 1
 95 -111 68 160 68 294 c 0
EndSplineSet
EndChar
StartChar: paragraph
Encoding: 182 182 106
Width: 549
Flags: MW
HStem: -82 21G<361 361> 775 20G<364 364>
VStem: 436 36<585.5 676>
LayerCount: 2
Back
Fore
SplineSet
351 756 m 1
 352 739 354 697 354 647 c 0
 354 506 344 246 280 -78 c 1
 245 -81 l 1
 276 77 295 234 307 363 c 1
 210 363 61 379 61 537 c 0
 61 687 226 768 364 795 c 1
 370 761 l 2
 369 761 351 756 351 756 c 1
434 744 m 1
 470 748 l 1
 471 732 472 700 472 654 c 0
 472 517 462 252 398 -78 c 1
 361 -82 l 1
 426 245 436 516 436 653 c 0
 436 699 435 729 434 744 c 1
EndSplineSet
EndChar
StartChar: periodcentered
Encoding: 183 183 221
Width: 490
Flags: MW
HStem: 217 21G<220 220> 270 20G<281 281>
LayerCount: 2
Back
Fore
SplineSet
281 290 m 1
 274 225 l 1
 220 217 l 1
 226 281 l 1
 281 290 l 1
EndSplineSet
EndChar
StartChar: cedilla
Encoding: 184 184 140
Width: 490
Flags: MW
HStem: -209 23<229.5 257 229.5 263.5> -64 23<234.5 257> 0 20G<220 220>
VStem: 301 23<-142 -108>
LayerCount: 2
Back
Fore
SplineSet
220 20 m 1
 218 -41 l 1
 232 -41 l 2
 285 -41 324 -74 324 -125 c 0
 324 -172 287 -209 240 -209 c 0
 216 -209 194 -200 178 -184 c 1
 195 -168 l 1
 206 -177 219 -186 240 -186 c 0
 274 -186 301 -159 301 -125 c 0
 301 -91 274 -64 240 -64 c 0
 229 -64 217 -68 209 -72 c 1
 188 -52 l 1
 212 15 l 1
 220 20 l 1
EndSplineSet
EndChar
StartChar: onesuperior
Encoding: 185 185 219
Width: 169
Flags: MW
HStem: 473 27<16 85 20 85 112 162> 837 20G<117 117>
VStem: 87 27
LayerCount: 2
Back
Fore
SplineSet
16 473 m 1
 20 500 l 1
 85 500 l 1
 89 796 l 1
 25 738 l 1
 8 759 l 1
 117 857 l 1
 112 500 l 1
 168 500 l 1
 162 473 l 1
 16 473 l 1
EndSplineSet
EndChar
StartChar: ordmasculine
Encoding: 186 186 222
Width: 275
Flags: MW
HStem: 371 27<103.5 160 103.5 171> 660 28<117.5 176>
VStem: 2 34<482.5 555 482.5 563> 244 33<500.5 568>
LayerCount: 2
Back
Fore
SplineSet
131 371 m 0
 54 371 2 438 2 516 c 0
 2 610 69 688 150 688 c 0
 221 688 277 621 277 543 c 0
 277 450 211 371 131 371 c 0
147 660 m 0
 88 660 36 594 36 516 c 0
 36 449 76 398 131 398 c 0
 189 398 244 463 244 538 c 0
 244 598 205 660 147 660 c 0
EndSplineSet
EndChar
StartChar: guillemotright
Encoding: 187 187 88
Width: 599
Flags: MW
HStem: 73 21G<124 124 335 335> 415 20G<105 105 319 319>
LayerCount: 2
Back
Fore
SplineSet
335 73 m 1
 313 99 l 1
 480 252 l 1
 296 410 l 1
 319 435 l 1
 534 251 l 1
 335 73 l 1
124 73 m 1
 99 99 l 1
 267 252 l 1
 82 410 l 1
 105 435 l 1
 321 251 l 1
 124 73 l 1
EndSplineSet
EndChar
StartChar: questiondown
Encoding: 191 191 115
Width: 491
Flags: MW
HStem: 0 36<155.5 265.5 153 271> 700 20G<318 318>
VStem: 1 35<163.5 244 163.5 254>
LayerCount: 2
Back
Fore
SplineSet
275 649 m 1
 281 713 l 1
 318 720 l 1
 312 656 l 1
 275 649 l 1
299 521 m 1
 143 381 l 2
 97 339 36 284 36 204 c 0
 36 123 85 36 221 36 c 0
 310 36 365 101 385 130 c 1
 410 106 l 1
 384 70 321 0 221 0 c 0
 90 0 1 83 1 204 c 0
 1 304 72 366 123 411 c 2
 282 552 l 1
 299 521 l 1
EndSplineSet
EndChar
StartChar: Agrave
Encoding: 192 192 226
Width: 613
Flags: MW
HStem: 4 21G<87 87> 884 20G<286 286>
LayerCount: 2
Back
Fore
SplineSet
402 770 m 1
 373 750 l 1
 245 879 l 1
 286 904 l 1
 402 770 l 1
355 679 m 1
 568 29 l 1
 538 7 l 1
 451 271 l 1
 164 211 l 1
 87 4 l 1
 54 22 l 1
 120 201 l 1
 72 191 l 1
 64 227 l 1
 137 241 l 1
 296 668 l 1
 355 679 l 1
180 251 m 1
 439 304 l 1
 327 646 l 1
 180 251 l 1
EndSplineSet
EndChar
StartChar: Aacute
Encoding: 193 193 149
Width: 613
Flags: MW
HStem: 4 21G<87 87> 876 20G<378 378>
LayerCount: 2
Back
Fore
SplineSet
240 784 m 1
 378 896 l 1
 415 864 l 1
 264 760 l 1
 240 784 l 1
355 679 m 1
 568 29 l 1
 538 7 l 1
 451 271 l 1
 164 211 l 1
 87 4 l 1
 54 22 l 1
 120 201 l 1
 72 191 l 1
 64 227 l 1
 137 241 l 1
 296 668 l 1
 355 679 l 1
180 251 m 1
 439 304 l 1
 327 646 l 1
 180 251 l 1
EndSplineSet
EndChar
StartChar: Acircumflex
Encoding: 194 194 150
Width: 613
Flags: MW
HStem: 4 21G<87 87> 864 20G<335 335>
LayerCount: 2
Back
Fore
SplineSet
217 743 m 1
 195 771 l 1
 335 884 l 1
 454 771 l 1
 431 745 l 1
 332 833 l 1
 217 743 l 1
355 679 m 1
 568 29 l 1
 538 7 l 1
 451 271 l 1
 164 211 l 1
 87 4 l 1
 54 22 l 1
 120 201 l 1
 72 191 l 1
 64 227 l 1
 137 241 l 1
 296 668 l 1
 355 679 l 1
180 251 m 1
 439 304 l 1
 327 646 l 1
 180 251 l 1
EndSplineSet
EndChar
StartChar: Atilde
Encoding: 195 195 227
Width: 613
Flags: MW
HStem: 4 21G<87 87> 743 31<380.5 410 380.5 413> 844 32<234 261>
LayerCount: 2
Back
Fore
SplineSet
355 679 m 1
 568 29 l 1
 538 7 l 1
 451 271 l 1
 164 211 l 1
 87 4 l 1
 54 22 l 1
 120 201 l 1
 72 191 l 1
 64 227 l 1
 137 241 l 1
 296 668 l 1
 355 679 l 1
180 251 m 1
 439 304 l 1
 327 646 l 1
 180 251 l 1
333 820 m 0
 359 781 370 774 391 774 c 0
 429 774 453 821 464 855 c 1
 495 845 l 1
 478 789 435 743 391 743 c 0
 350 743 327 774 308 801 c 0
 282 838 271 844 251 844 c 0
 217 844 191 802 181 771 c 1
 151 781 l 1
 167 825 199 876 251 876 c 0
 293 876 315 845 333 820 c 0
EndSplineSet
EndChar
StartChar: Adieresis
Encoding: 196 196 152
Width: 613
Flags: MW
HStem: 4 21G<87 87> 802 20G<280 280 446 446>
LayerCount: 2
Back
Fore
SplineSet
355 679 m 1
 568 29 l 1
 538 7 l 1
 451 271 l 1
 164 211 l 1
 87 4 l 1
 54 22 l 1
 120 201 l 1
 72 191 l 1
 64 227 l 1
 137 241 l 1
 296 668 l 1
 355 679 l 1
180 251 m 1
 439 304 l 1
 327 646 l 1
 180 251 l 1
280 822 m 1
 273 758 l 1
 219 750 l 1
 225 814 l 1
 280 822 l 1
446 822 m 1
 438 758 l 1
 385 750 l 1
 391 814 l 1
 446 822 l 1
EndSplineSet
EndChar
StartChar: Aring
Encoding: 197 197 228
Width: 613
Flags: MW
HStem: 4 21G<87 87> 743 24<289.5 338 289.5 341.5> 923 25<309 353>
VStem: 205 25<817.5 864 817.5 867.5> 413 26<827 870.5>
LayerCount: 2
Back
Fore
SplineSet
312 743 m 0
 249 743 205 786 205 838 c 0
 205 897 262 948 332 948 c 0
 398 948 439 900 439 853 c 0
 439 783 371 743 312 743 c 0
329 923 m 0
 289 923 230 890 230 838 c 0
 230 797 265 767 314 767 c 0
 362 767 413 804 413 850 c 0
 413 891 377 923 329 923 c 0
355 679 m 1
 568 29 l 1
 538 7 l 1
 451 271 l 1
 164 211 l 1
 87 4 l 1
 54 22 l 1
 120 201 l 1
 72 191 l 1
 64 227 l 1
 137 241 l 1
 296 668 l 1
 355 679 l 1
180 251 m 1
 439 304 l 1
 327 646 l 1
 180 251 l 1
EndSplineSet
EndChar
StartChar: AE
Encoding: 198 198 229
Width: 1039
Flags: MW
HStem: 0 37<553 978> 336 37<553 934 553 945> 644 37<553 981 553 553>
VStem: 516 37<37 37 37 318 318 318 373 611 611 611>
LayerCount: 2
Back
Fore
SplineSet
553 37 m 1
 993 37 l 1
 978 0 l 1
 516 0 l 1
 516 318 l 1
 271 268 l 1
 85 3 l 1
 54 21 l 1
 222 260 l 1
 166 246 l 1
 159 280 l 1
 252 300 l 1
 521 681 l 1
 989 681 l 1
 981 644 l 1
 553 644 l 1
 553 373 l 1
 945 373 l 1
 934 336 l 1
 553 336 l 1
 553 37 l 1
516 354 m 1
 516 611 l 1
 302 310 l 1
 516 354 l 1
EndSplineSet
EndChar
StartChar: Ccedilla
Encoding: 199 199 155
Width: 621
Flags: MW
HStem: -207 23<335 362 335 368> -63 23<339.5 362> -1 34<311 311 323 375.5> 647 34<270 374 259 384.5>
VStem: 53 33<221 362.5 221 370.5> 403 25<-141 -107>
LayerCount: 2
Back
Fore
SplineSet
345 -184 m 0
 379 -184 403 -158 403 -124 c 0
 403 -90 379 -63 345 -63 c 0
 334 -63 322 -67 314 -71 c 1
 293 -52 l 1
 311 -1 l 1
 166 16 53 137 53 290 c 0
 53 451 171 681 347 681 c 0
 401 681 458 661 508 623 c 1
 508 657 l 1
 535 657 l 1
 535 555 l 1
 508 555 l 1
 508 575 l 1
 479 609 428 647 341 647 c 0
 199 647 86 433 86 292 c 0
 86 150 196 33 334 33 c 0
 433 33 497 68 552 147 c 1
 575 124 l 1
 525 47 428 -1 323 -1 c 1
 323 -40 l 1
 337 -40 l 2
 389 -40 428 -73 428 -124 c 0
 428 -170 391 -207 345 -207 c 0
 321 -207 299 -198 284 -182 c 1
 300 -166 l 1
 312 -175 325 -184 345 -184 c 0
EndSplineSet
EndChar
StartChar: Egrave
Encoding: 200 200 230
Width: 601
Flags: MW
HStem: 0 37<105 530> 336 37<105 486 105 497> 644 37<105 533 105 105> 884 20G<244 244>
VStem: 68 37<37 37 37 336 373 644>
LayerCount: 2
Back
Fore
SplineSet
360 770 m 1
 330 750 l 1
 203 879 l 1
 244 904 l 1
 360 770 l 1
105 37 m 1
 545 37 l 1
 530 0 l 1
 68 0 l 1
 68 681 l 1
 541 681 l 1
 533 644 l 1
 105 644 l 1
 105 373 l 1
 497 373 l 1
 486 336 l 1
 105 336 l 1
 105 37 l 1
EndSplineSet
EndChar
StartChar: Edieresis
Encoding: 203 203 159
Width: 601
Flags: MW
HStem: 0 37<105 530> 336 37<105 486 105 497> 644 37<105 533 105 105> 802 20G<258 258 424 424>
VStem: 68 37<37 37 37 336 373 644>
LayerCount: 2
Back
Fore
SplineSet
258 822 m 1
 251 758 l 1
 197 750 l 1
 204 814 l 1
 258 822 l 1
424 822 m 1
 417 758 l 1
 363 750 l 1
 370 814 l 1
 424 822 l 1
105 37 m 1
 545 37 l 1
 530 0 l 1
 68 0 l 1
 68 681 l 1
 541 681 l 1
 533 644 l 1
 105 644 l 1
 105 373 l 1
 497 373 l 1
 486 336 l 1
 105 336 l 1
 105 37 l 1
EndSplineSet
EndChar
StartChar: Igrave
Encoding: 204 204 232
Width: 427
Flags: MW
HStem: 0 37<73 201 238 361 66 201> 644 37<73 201 66 368 238 361 238 238> 884 20G<172 172>
VStem: 201 37<37 644 37 644>
LayerCount: 2
Back
Fore
SplineSet
288 770 m 1
 259 750 l 1
 131 879 l 1
 172 904 l 1
 288 770 l 1
361 644 m 1
 238 644 l 1
 238 37 l 1
 368 37 l 1
 361 0 l 1
 66 0 l 1
 73 37 l 1
 201 37 l 1
 201 644 l 1
 66 644 l 1
 73 681 l 1
 368 681 l 1
 361 644 l 1
EndSplineSet
EndChar
StartChar: Icircumflex
Encoding: 206 206 162
Width: 427
Flags: MW
HStem: 0 37<73 201 238 361 66 201> 644 37<73 201 66 368 238 361 238 238> 864 20G<230 230>
VStem: 201 37<37 644 37 644>
LayerCount: 2
Back
Fore
SplineSet
111 743 m 1
 90 771 l 1
 230 884 l 1
 348 771 l 1
 326 745 l 1
 227 833 l 1
 111 743 l 1
361 644 m 1
 238 644 l 1
 238 37 l 1
 368 37 l 1
 361 0 l 1
 66 0 l 1
 73 37 l 1
 201 37 l 1
 201 644 l 1
 66 644 l 1
 73 681 l 1
 368 681 l 1
 361 644 l 1
EndSplineSet
EndChar
StartChar: Eth
Encoding: 208 208 234
Width: 666
Flags: MW
HStem: -15 35<249 295 245.5 378> 300 40<37 130 37 130 30 130 37 165 165 269> 646 34<165 165>
VStem: 130 35<27 300 27 300 27 300 340 646> 580 35<247 369.5>
LayerCount: 2
Back
Fore
SplineSet
130 -1 m 1
 130 300 l 1
 30 300 l 1
 37 340 l 1
 130 340 l 1
 130 680 l 1
 147 680 l 2
 266 680 354 656 414 627 c 0
 545 566 615 452 615 300 c 0
 615 98 490 -15 266 -15 c 0
 232 -15 171 -10 130 -1 c 1
165 646 m 1
 165 340 l 1
 276 340 l 1
 269 300 l 1
 165 300 l 1
 165 27 l 1
 188 23 225 20 266 20 c 0
 324 20 406 29 472 70 c 0
 543 116 580 194 580 300 c 0
 580 439 520 538 398 595 c 0
 312 636 212 645 165 646 c 1
EndSplineSet
EndChar
StartChar: Ntilde
Encoding: 209 209 235
Width: 605
Flags: MW
HStem: 1 21G<495 495> 743 31<370.5 400 370.5 403> 844 32<224 251>
VStem: 68 35 513 34<45 672 672 672>
LayerCount: 2
Back
Fore
SplineSet
513 672 m 1
 547 679 l 1
 547 12 l 1
 495 1 l 1
 103 631 l 1
 103 11 l 1
 69 3 l 1
 68 666 l 1
 114 680 l 1
 513 45 l 1
 513 672 l 1
323 820 m 0
 349 781 360 774 381 774 c 0
 419 774 443 821 454 855 c 1
 485 845 l 1
 468 789 425 743 381 743 c 0
 340 743 317 774 298 801 c 0
 272 838 261 844 241 844 c 0
 207 844 181 802 171 771 c 1
 141 781 l 1
 157 825 189 876 241 876 c 0
 283 876 305 845 323 820 c 0
EndSplineSet
EndChar
StartChar: Ograve
Encoding: 210 210 236
Width: 650
Flags: MW
HStem: -2 33<246.5 374 246.5 386> 649 33<282.5 412.5> 884 20G<303 303>
VStem: 62 34<235.5 406 235.5 414.5> 564 34<273.5 436>
LayerCount: 2
Back
Fore
SplineSet
420 770 m 1
 390 750 l 1
 262 879 l 1
 303 904 l 1
 420 770 l 1
308 -2 m 0
 165 -2 62 144 62 314 c 0
 62 515 196 682 352 682 c 0
 494 682 598 540 598 368 c 0
 598 167 464 -2 308 -2 c 0
348 649 m 0
 217 649 96 500 96 312 c 0
 96 159 185 31 308 31 c 0
 440 31 564 183 564 364 c 0
 564 508 477 649 348 649 c 0
EndSplineSet
EndChar
StartChar: Otilde
Encoding: 213 213 237
Width: 650
Flags: MW
HStem: -2 33<246.5 374 246.5 386> 649 33<282.5 412.5> 743 31<410.5 440 410.5 443> 844 32<264 291>
VStem: 62 34<235.5 406 235.5 414.5> 564 34<273.5 436>
LayerCount: 2
Back
Fore
SplineSet
308 -2 m 0
 165 -2 62 144 62 314 c 0
 62 515 196 682 352 682 c 0
 494 682 598 540 598 368 c 0
 598 167 464 -2 308 -2 c 0
348 649 m 0
 217 649 96 500 96 312 c 0
 96 159 185 31 308 31 c 0
 440 31 564 183 564 364 c 0
 564 508 477 649 348 649 c 0
363 820 m 0
 389 781 400 774 421 774 c 0
 459 774 483 821 494 855 c 1
 525 845 l 1
 508 789 465 743 421 743 c 0
 380 743 357 774 338 801 c 0
 312 838 301 844 281 844 c 0
 247 844 221 802 211 771 c 1
 181 781 l 1
 197 825 229 876 281 876 c 0
 323 876 345 845 363 820 c 0
EndSplineSet
EndChar
StartChar: Odieresis
Encoding: 214 214 170
Width: 650
Flags: MW
HStem: -2 33<246.5 374 246.5 386> 649 33<282.5 412.5> 802 20G<301 301 466 466>
VStem: 62 34<235.5 406 235.5 414.5> 564 34<273.5 436>
LayerCount: 2
Back
Fore
SplineSet
301 822 m 1
 294 758 l 1
 240 750 l 1
 247 814 l 1
 301 822 l 1
466 822 m 1
 459 758 l 1
 405 750 l 1
 411 814 l 1
 466 822 l 1
308 -2 m 0
 165 -2 62 144 62 314 c 0
 62 515 196 682 352 682 c 0
 494 682 598 540 598 368 c 0
 598 167 464 -2 308 -2 c 0
348 649 m 0
 217 649 96 500 96 312 c 0
 96 159 185 31 308 31 c 0
 440 31 564 183 564 364 c 0
 564 508 477 649 348 649 c 0
EndSplineSet
EndChar
StartChar: multiply
Encoding: 215 215 171
Width: 344
Flags: MW
HStem: 139 21G<86 86> 346 20G<265 265>
LayerCount: 2
Back
Fore
SplineSet
201 253 m 1
 288 165 l 1
 264 141 l 1
 177 228 l 1
 86 139 l 1
 62 162 l 1
 153 253 l 1
 72 334 l 1
 95 358 l 1
 177 277 l 1
 265 366 l 1
 289 342 l 1
 201 253 l 1
EndSplineSet
EndChar
StartChar: Oslash
Encoding: 216 216 238
Width: 650
Flags: MW
HStem: -31 21G<120 120> -1 33<286 386> 650 33<279 360.5> 718 20G<509 509>
VStem: 62 34<274.5 407.5 274.5 415> 564 34<292 406>
LayerCount: 2
Back
Fore
SplineSet
538 721 m 1
 489 633 l 1
 566 572 598 467 598 369 c 0
 598 168 464 -1 308 -1 c 0
 262 -1 212 19 167 53 c 1
 120 -31 l 1
 92 -13 l 1
 142 77 l 1
 91 139 62 223 62 311 c 0
 62 519 189 683 352 683 c 0
 387 683 424 673 462 651 c 1
 509 738 l 1
 538 721 l 1
160 107 m 1
 444 620 l 1
 410 640 377 650 344 650 c 0
 214 650 96 501 96 314 c 0
 96 235 118 163 160 107 c 1
308 32 m 0
 466 32 564 219 564 365 c 0
 564 447 538 543 471 600 c 1
 183 82 l 1
 222 49 264 32 308 32 c 0
EndSplineSet
EndChar
StartChar: Ugrave
Encoding: 217 217 239
Width: 674
Flags: MW
HStem: 0 30<236 452 236 469.5> 884 20G<309 309>
VStem: 68 37<343 496.5 343 497.5> 579 37<363.5 473.5>
LayerCount: 2
Back
Fore
SplineSet
426 770 m 1
 396 750 l 1
 268 879 l 1
 309 904 l 1
 426 770 l 1
342 0 m 0
 107 0 68 199 68 463 c 0
 68 532 69 635 70 671 c 1
 107 678 l 1
 106 655 105 540 105 453 c 0
 105 233 130 30 342 30 c 0
 562 30 579 253 579 434 c 0
 579 513 578 624 577 670 c 1
 615 678 l 1
 616 653 616 556 616 480 c 0
 616 247 597 0 342 0 c 0
EndSplineSet
EndChar
StartChar: Ucircumflex
Encoding: 219 219 240
Width: 674
Flags: MW
HStem: 0 30<236 452 236 469.5> 864 20G<357 357>
VStem: 68 37<343 496.5 343 497.5> 579 37<363.5 473.5>
LayerCount: 2
Back
Fore
SplineSet
238 744 m 1
 216 771 l 1
 357 884 l 1
 475 771 l 1
 452 745 l 1
 356 833 l 1
 238 744 l 1
342 0 m 0
 107 0 68 199 68 463 c 0
 68 532 69 635 70 671 c 1
 107 678 l 1
 106 655 105 540 105 453 c 0
 105 233 130 30 342 30 c 0
 562 30 579 253 579 434 c 0
 579 513 578 624 577 670 c 1
 615 678 l 1
 616 653 616 556 616 480 c 0
 616 247 597 0 342 0 c 0
EndSplineSet
EndChar
StartChar: Yacute
Encoding: 221 221 177
Width: 618
Flags: MW
HStem: 0 21G<178 217 178 178> 876 20G<388 388>
LayerCount: 2
Back
Fore
SplineSet
250 784 m 1
 388 896 l 1
 426 864 l 1
 275 760 l 1
 250 784 l 1
322 243 m 1
 579 677 l 1
 619 677 l 1
 217 0 l 1
 178 0 l 1
 301 210 l 1
 29 677 l 1
 68 677 l 1
 322 243 l 1
EndSplineSet
EndChar
StartChar: Thorn
Encoding: 222 222 241
Width: 496
Flags: MW
HStem: 3 21G<68 68> 146 41<102 103> 535 38<104 175 104 201.5> 663 20G<104 104>
VStem: 68 35<187 187 187 676> 434 37<320.5 438.5>
LayerCount: 2
Back
Fore
SplineSet
68 676 m 1
 104 683 l 1
 104 573 l 1
 246 573 471 557 471 378 c 0
 471 203 251 156 102 146 c 1
 102 10 l 1
 68 3 l 1
 68 676 l 1
104 535 m 1
 103 187 l 1
 296 193 434 261 434 380 c 0
 434 497 299 535 104 535 c 1
EndSplineSet
EndChar
StartChar: germandbls
Encoding: 223 223 179
Width: 515
Flags: MW
HStem: -25 33<284 339 284 349.5> 612 34<209.5 279>
VStem: 81 37<23 486 23 486 23 530> 369 33<465 520.5> 456 35<126.5 211>
LayerCount: 2
Back
Fore
SplineSet
342 362 m 1
 435 338 491 259 491 172 c 0
 491 66 403 -25 296 -25 c 0
 266 -25 239 -19 194 4 c 1
 209 33 l 1
 245 15 272 8 296 8 c 0
 382 8 456 82 456 171 c 0
 456 251 394 333 299 333 c 0
 278 333 262 331 234 325 c 1
 245 359 l 1
 339 376 369 433 369 486 c 0
 369 555 314 612 244 612 c 0
 175 612 118 555 118 486 c 2
 118 23 l 1
 81 -6 l 1
 81 486 l 2
 81 574 156 646 244 646 c 0
 331 646 402 574 402 486 c 0
 402 444 381 392 342 362 c 1
EndSplineSet
EndChar
StartChar: agrave
Encoding: 224 224 242
Width: 494
Flags: MW
HStem: 2 21G<399 399> 7 37<236 265.5> 477 36<219 311.5> 716 20G<214 214>
VStem: 52 39<184 270 184 273.5> 399 38<10 65 65 65>
LayerCount: 2
Back
Fore
SplineSet
332 602 m 1x7c
 301 582 l 1
 171 713 l 1
 214 736 l 1
 332 602 l 1x7c
437 475 m 1
 437 10 l 1
 399 2 l 1xbc
 399 65 l 1
 357 39 293 7 238 7 c 0
 131 7 52 95 52 222 c 0
 52 325 116 513 289 513 c 0
 342 513 392 497 437 475 c 1
236 44 m 0x7c
 301 44 372 91 397 109 c 1
 402 450 l 1
 378 459 329 477 294 477 c 0
 144 477 91 316 91 224 c 0
 91 144 129 46 236 44 c 0x7c
EndSplineSet
EndChar
StartChar: aacute
Encoding: 225 225 181
Width: 494
Flags: MW
HStem: 2 21G<399 399> 7 37<236 265.5> 477 36<219 311.5> 710 20G<321 321>
VStem: 52 39<184 270 184 273.5> 399 38<10 65 65 65>
LayerCount: 2
Back
Fore
SplineSet
182 617 m 1x7c
 321 730 l 1
 359 698 l 1
 207 593 l 1
 182 617 l 1x7c
437 475 m 1
 437 10 l 1
 399 2 l 1xbc
 399 65 l 1
 357 39 293 7 238 7 c 0
 131 7 52 95 52 222 c 0
 52 325 116 513 289 513 c 0
 342 513 392 497 437 475 c 1
236 44 m 0x7c
 301 44 372 91 397 109 c 1
 402 450 l 1
 378 459 329 477 294 477 c 0
 144 477 91 316 91 224 c 0
 91 144 129 46 236 44 c 0x7c
EndSplineSet
EndChar
StartChar: acircumflex
Encoding: 226 226 182
Width: 494
Flags: MW
HStem: 2 21G<399 399> 7 37<236 265.5> 477 36<219 311.5> 698 20G<294 294>
VStem: 52 39<184 270 184 273.5> 399 38<10 65 65 65>
LayerCount: 2
Back
Fore
SplineSet
173 575 m 1x7c
 151 603 l 1
 294 718 l 1
 414 603 l 1
 391 577 l 1
 291 667 l 1
 173 575 l 1x7c
437 475 m 1
 437 10 l 1
 399 2 l 1xbc
 399 65 l 1
 357 39 293 7 238 7 c 0
 131 7 52 95 52 222 c 0
 52 325 116 513 289 513 c 0
 342 513 392 497 437 475 c 1
236 44 m 0x7c
 301 44 372 91 397 109 c 1
 402 450 l 1
 378 459 329 477 294 477 c 0
 144 477 91 316 91 224 c 0
 91 144 129 46 236 44 c 0x7c
EndSplineSet
EndChar
StartChar: atilde
Encoding: 227 227 243
Width: 503
Flags: MW
HStem: 2 21G<399 399> 7 37<236 265.5> 477 36<219 311.5> 579 31<327.5 357 327.5 360> 680 32<181 208>
VStem: 52 39<184 270 184 273.5> 399 38<10 65 65 65>
LayerCount: 2
Back
Fore
SplineSet
437 475 m 1x7e
 437 10 l 1
 399 2 l 1xbe
 399 65 l 1
 357 39 293 7 238 7 c 0
 131 7 52 95 52 222 c 0
 52 325 116 513 289 513 c 0
 342 513 392 497 437 475 c 1x7e
236 44 m 0x7e
 301 44 372 91 397 109 c 1
 402 450 l 1
 378 459 329 477 294 477 c 0
 144 477 91 316 91 224 c 0
 91 144 129 46 236 44 c 0x7e
280 656 m 0
 306 617 317 610 338 610 c 0
 376 610 400 657 411 691 c 1
 442 681 l 1
 425 625 382 579 338 579 c 0
 297 579 274 610 255 637 c 0
 229 674 218 680 198 680 c 0
 164 680 138 638 128 607 c 1
 98 617 l 1
 114 661 146 712 198 712 c 0
 240 712 262 681 280 656 c 0
EndSplineSet
EndChar
StartChar: aring
Encoding: 229 229 244
Width: 494
Flags: MW
HStem: 2 21G<399 399> 7 37<236 265.5> 477 36<219 311.5> 587 24<243.5 292 243.5 295.5> 767 25<263 307>
VStem: 52 39<184 270 184 273.5> 159 25<661.5 708 661.5 711.5> 367 26<671 714.5> 399 38<10 65 65 65>
LayerCount: 2
Back
Fore
SplineSet
437 475 m 1x7f80
 437 10 l 1
 399 2 l 1xbf80
 399 65 l 1
 357 39 293 7 238 7 c 0
 131 7 52 95 52 222 c 0
 52 325 116 513 289 513 c 0
 342 513 392 497 437 475 c 1x7f80
236 44 m 0x7f80
 301 44 372 91 397 109 c 1
 402 450 l 1
 378 459 329 477 294 477 c 0
 144 477 91 316 91 224 c 0
 91 144 129 46 236 44 c 0x7f80
266 587 m 0
 203 587 159 630 159 682 c 0
 159 741 216 792 286 792 c 0
 352 792 393 744 393 697 c 0
 393 627 325 587 266 587 c 0
283 767 m 0
 243 767 184 734 184 682 c 0
 184 641 219 611 268 611 c 0
 316 611 367 648 367 694 c 0
 367 735 331 767 283 767 c 0
EndSplineSet
EndChar
StartChar: ae
Encoding: 230 230 245
Width: 854
Flags: MW
HStem: 0 21G<597.5 671> 7 25 7 37<236 265.5> 477 25 493 20G<202.5 315.5>
VStem: 52 39<184 270 184 273.5> 399 34
LayerCount: 2
Back
Fore
SplineSet
641 0 m 0x96
 554 0 479 46 437 117 c 1
 437 10 l 1
 399 2 l 1
 399 65 l 1
 357 39 293 7 238 7 c 0
 131 7 52 95 52 222 c 0
 52 325 116 513 289 513 c 0x2e
 342 513 392 497 437 475 c 1
 437 385 l 1
 479 455 554 502 641 502 c 0
 725 502 795 441 820 365 c 1
 451 160 l 1
 489 84 560 32 641 32 c 0x56
 693 32 743 54 782 91 c 1
 805 68 l 1
 759 25 701 0 641 0 c 0x96
236 44 m 0x36
 301 44 372 91 397 109 c 1
 402 450 l 1
 378 459 329 477 294 477 c 0
 144 477 91 316 91 224 c 0
 91 144 129 46 236 44 c 0x36
643 470 m 0
 523 470 433 367 433 251 c 0
 433 233 436 214 442 190 c 1
 780 379 l 1
 748 436 696 470 643 470 c 0
EndSplineSet
EndChar
StartChar: ccedilla
Encoding: 231 231 187
Width: 497
Flags: MW
HStem: -209 23<259.5 287 259.5 293.5> -64 23<264.5 287> 0 33<279 279> 469 33<222.5 301>
VStem: 53 35<160.5 266.5 139 271.5> 331 23<-142 -108>
LayerCount: 2
Back
Fore
SplineSet
278 33 m 0
 342 36 397 67 427 115 c 1
 452 90 l 1
 415 35 353 3 279 0 c 2
 249 0 l 1
 248 -41 l 1
 262 -41 l 2
 315 -41 354 -74 354 -125 c 0
 354 -172 317 -209 270 -209 c 0
 246 -209 224 -200 208 -184 c 1
 225 -168 l 1
 236 -177 249 -186 270 -186 c 0
 304 -186 331 -159 331 -125 c 0
 331 -91 304 -64 270 -64 c 0
 259 -64 247 -68 239 -72 c 1
 218 -52 l 1
 237 2 l 1
 137 17 53 106 53 215 c 0
 53 328 140 502 275 502 c 0
 333 502 386 478 420 438 c 1
 394 413 l 1
 367 450 325 469 277 469 c 0
 168 469 88 316 88 217 c 0
 88 61 225 31 278 33 c 0
EndSplineSet
EndChar
StartChar: egrave
Encoding: 232 232 246
Width: 517
Flags: MW
HStem: 0 32<253.5 320 253.5 324> 470 32<234 320.5> 717 20G<221 221>
VStem: 52 32<242 309 242 319.5>
LayerCount: 2
Back
Fore
SplineSet
338 602 m 1
 308 582 l 1
 179 712 l 1
 221 737 l 1
 338 602 l 1
294 0 m 0
 160 0 52 112 52 251 c 0
 52 388 159 502 294 502 c 0
 378 502 448 441 473 365 c 1
 104 160 l 1
 142 84 213 32 294 32 c 0
 346 32 396 54 435 91 c 1
 458 68 l 1
 412 25 354 0 294 0 c 0
294 470 m 0
 174 470 84 367 84 251 c 0
 84 233 87 214 93 190 c 1
 431 379 l 1
 399 436 347 470 294 470 c 0
EndSplineSet
EndChar
StartChar: eacute
Encoding: 233 233 189
Width: 517
Flags: MW
HStem: 0 32<253.5 320 253.5 324> 470 32<234 320.5> 710 20G<321 321>
VStem: 52 32<242 309 242 319.5>
LayerCount: 2
Back
Fore
SplineSet
181 617 m 1
 321 730 l 1
 358 698 l 1
 206 593 l 1
 181 617 l 1
294 0 m 0
 160 0 52 112 52 251 c 0
 52 388 159 502 294 502 c 0
 378 502 448 441 473 365 c 1
 104 160 l 1
 142 84 213 32 294 32 c 0
 346 32 396 54 435 91 c 1
 458 68 l 1
 412 25 354 0 294 0 c 0
294 470 m 0
 174 470 84 367 84 251 c 0
 84 233 87 214 93 190 c 1
 431 379 l 1
 399 436 347 470 294 470 c 0
EndSplineSet
EndChar
StartChar: igrave
Encoding: 236 236 248
Width: 207
Flags: MW
HStem: 2 21G<84 84> 717 20G<53 53>
VStem: 84 40<9 493 493 493>
LayerCount: 2
Back
Fore
SplineSet
171 602 m 1
 141 582 l 1
 12 712 l 1
 53 737 l 1
 171 602 l 1
84 493 m 1
 124 498 l 1
 124 9 l 1
 84 2 l 1
 84 493 l 1
EndSplineSet
EndChar
StartChar: iacute
Encoding: 237 237 193
Width: 195
Flags: MW
HStem: 2 21G<71 71> 710 20G<174 174>
VStem: 71 40<9 493 493 493>
LayerCount: 2
Back
Fore
SplineSet
34 617 m 1
 174 730 l 1
 211 698 l 1
 59 593 l 1
 34 617 l 1
71 493 m 1
 111 498 l 1
 111 9 l 1
 71 2 l 1
 71 493 l 1
EndSplineSet
EndChar
StartChar: icircumflex
Encoding: 238 238 194
Width: 236
Flags: MW
HStem: 2 21G<105 105> 698 20G<142 142>
VStem: 105 40<9 493 493 493>
LayerCount: 2
Back
Fore
SplineSet
22 575 m 1
 1 603 l 1
 142 718 l 1
 262 603 l 1
 239 577 l 1
 139 667 l 1
 22 575 l 1
105 493 m 1
 145 498 l 1
 145 9 l 1
 105 2 l 1
 105 493 l 1
EndSplineSet
EndChar
StartChar: idieresis
Encoding: 239 239 249
Width: 236
Flags: MW
HStem: 2 21G<99 99> 649 20G<80 80 246 246>
VStem: 99 41<9 493 493 493>
LayerCount: 2
Back
Fore
SplineSet
80 669 m 1
 72 604 l 1
 18 596 l 1
 25 660 l 1
 80 669 l 1
246 669 m 1
 239 604 l 1
 185 596 l 1
 191 660 l 1
 246 669 l 1
99 493 m 1
 140 498 l 1
 140 9 l 1
 99 2 l 1
 99 493 l 1
EndSplineSet
EndChar
StartChar: eth
Encoding: 240 240 250
Width: 472
Flags: MW
HStem: 0 32<177 272 177 281> 401 32 658 20G<370 370>
VStem: 52 33<129.5 250> 397 33<203.5 281>
LayerCount: 2
Back
Fore
SplineSet
260 599 m 1
 342 511 430 383 430 255 c 0
 430 128 348 0 214 0 c 0
 123 0 52 71 52 174 c 0
 52 326 171 427 345 433 c 1
 309 494 267 544 232 583 c 1
 183 556 132 524 110 509 c 1
 99 528 l 1
 133 550 183 579 216 599 c 1
 195 620 176 637 166 647 c 1
 186 672 l 1
 246 614 l 1
 286 636 336 663 370 678 c 1
 377 659 l 1
 346 646 291 619 260 599 c 1
214 32 m 0
 330 32 397 149 397 258 c 0
 397 304 384 353 361 401 c 1
 205 401 85 333 85 173 c 0
 85 86 140 32 214 32 c 0
EndSplineSet
EndChar
StartChar: ntilde
Encoding: 241 241 251
Width: 526
Flags: MW
HStem: 2 21G<68 68> 467 34<299 349.5> 579 31<349.5 379 349.5 382> 680 32<203 230>
VStem: 68 37<126 126 282 493 493 493> 433 36<10 109 10 144 10 195>
LayerCount: 2
Back
Fore
SplineSet
105 500 m 1
 105 282 l 1
 129 383 217 501 327 501 c 0
 392 501 434 465 452 397 c 0
 466 333 469 244 469 109 c 2
 469 10 l 1
 433 3 l 1
 433 144 l 2
 433 246 431 333 417 386 c 0
 404 444 375 467 324 467 c 0
 274 467 218 445 160 337 c 0
 125 272 106 202 105 126 c 2
 104 10 l 1
 68 2 l 1
 68 493 l 1
 105 500 l 1
302 656 m 0
 328 617 339 610 360 610 c 0
 398 610 422 657 433 691 c 1
 464 681 l 1
 447 625 404 579 360 579 c 0
 319 579 296 610 277 637 c 0
 251 674 240 680 220 680 c 0
 186 680 160 638 150 607 c 1
 120 617 l 1
 136 661 168 712 220 712 c 0
 262 712 284 681 302 656 c 0
EndSplineSet
EndChar
StartChar: ograve
Encoding: 242 242 252
Width: 525
Flags: MW
HStem: 0 32<205.5 304 205.5 315> 467 33<228 325.5> 717 20G<239 239>
VStem: 52 39<177 294.5 177 306.5> 446 38<203 320.5>
LayerCount: 2
Back
Fore
SplineSet
357 602 m 1
 327 582 l 1
 198 712 l 1
 239 737 l 1
 357 602 l 1
252 0 m 0
 138 0 52 107 52 233 c 0
 52 380 153 500 284 500 c 0
 397 500 484 395 484 271 c 0
 484 123 378 0 252 0 c 0
279 467 m 0
 177 467 91 358 91 231 c 0
 91 123 157 32 254 32 c 0
 354 32 446 140 446 266 c 0
 446 375 372 467 279 467 c 0
EndSplineSet
EndChar
StartChar: ocircumflex
Encoding: 244 244 200
Width: 525
Flags: MW
HStem: 0 32<205.5 304 205.5 315> 467 33<228 325.5> 698 20G<301 301>
VStem: 52 39<177 294.5 177 306.5> 446 38<203 320.5>
LayerCount: 2
Back
Fore
SplineSet
181 575 m 1
 159 603 l 1
 301 718 l 1
 421 603 l 1
 398 577 l 1
 298 667 l 1
 181 575 l 1
252 0 m 0
 138 0 52 107 52 233 c 0
 52 380 153 500 284 500 c 0
 397 500 484 395 484 271 c 0
 484 123 378 0 252 0 c 0
279 467 m 0
 177 467 91 358 91 231 c 0
 91 123 157 32 254 32 c 0
 354 32 446 140 446 266 c 0
 446 375 372 467 279 467 c 0
EndSplineSet
EndChar
StartChar: otilde
Encoding: 245 245 253
Width: 525
Flags: MW
HStem: 0 32<205.5 304 205.5 315> 467 33<228 325.5> 579 31<349.5 379 349.5 382> 680 32<203 230>
VStem: 52 39<177 294.5 177 306.5> 446 38<203 320.5>
LayerCount: 2
Back
Fore
SplineSet
252 0 m 0
 138 0 52 107 52 233 c 0
 52 380 153 500 284 500 c 0
 397 500 484 395 484 271 c 0
 484 123 378 0 252 0 c 0
279 467 m 0
 177 467 91 358 91 231 c 0
 91 123 157 32 254 32 c 0
 354 32 446 140 446 266 c 0
 446 375 372 467 279 467 c 0
302 656 m 0
 328 617 339 610 360 610 c 0
 398 610 422 657 433 691 c 1
 464 681 l 1
 447 625 404 579 360 579 c 0
 319 579 296 610 277 637 c 0
 251 674 240 680 220 680 c 0
 186 680 160 638 150 607 c 1
 120 617 l 1
 136 661 168 712 220 712 c 0
 262 712 284 681 302 656 c 0
EndSplineSet
EndChar
StartChar: odieresis
Encoding: 246 246 202
Width: 525
Flags: MW
HStem: 0 32<205.5 304 205.5 315> 467 33<228 325.5> 649 20G<244 244 410 410>
VStem: 52 39<177 294.5 177 306.5> 446 38<203 320.5>
LayerCount: 2
Back
Fore
SplineSet
244 669 m 1
 236 604 l 1
 182 596 l 1
 188 660 l 1
 244 669 l 1
410 669 m 1
 403 604 l 1
 349 596 l 1
 355 660 l 1
 410 669 l 1
252 0 m 0
 138 0 52 107 52 233 c 0
 52 380 153 500 284 500 c 0
 397 500 484 395 484 271 c 0
 484 123 378 0 252 0 c 0
279 467 m 0
 177 467 91 358 91 231 c 0
 91 123 157 32 254 32 c 0
 354 32 446 140 446 266 c 0
 446 375 372 467 279 467 c 0
EndSplineSet
EndChar
StartChar: divide
Encoding: 247 247 203
Width: 397
Flags: MW
HStem: 139 21G<172 172> 244 33<60 346 67 339> 362 20G<230 230>
LayerCount: 2
Back
Fore
SplineSet
230 382 m 1
 227 337 l 1
 188 331 l 1
 193 376 l 1
 230 382 l 1
215 191 m 1
 212 145 l 1
 172 139 l 1
 178 184 l 1
 215 191 l 1
60 244 m 1
 67 277 l 1
 346 277 l 1
 339 244 l 1
 60 244 l 1
EndSplineSet
EndChar
StartChar: oslash
Encoding: 248 248 254
Width: 525
Flags: MW
HStem: -32 21G<113 113> 0 32<237.5 304> 467 33<228 292.5> 523 20G<413 413>
VStem: 52 39<201.5 294.5 201.5 306.5> 446 38<203 298>
LayerCount: 2
Back
Fore
SplineSet
252 0 m 0
 214 0 180 12 150 32 c 1
 113 -32 l 1
 87 -16 l 1
 126 51 l 1
 80 94 52 161 52 233 c 0
 52 380 153 500 284 500 c 0
 316 500 347 491 374 476 c 1
 413 543 l 1
 440 526 l 1
 400 457 l 1
 451 415 484 347 484 271 c 0
 484 123 378 0 252 0 c 0
446 266 m 0
 446 330 420 388 381 425 c 1
 167 61 l 1
 192 43 221 32 254 32 c 0
 354 32 446 140 446 266 c 0
279 467 m 0
 177 467 91 358 91 231 c 0
 91 172 110 119 143 82 c 1
 355 444 l 1
 332 458 306 467 279 467 c 0
EndSplineSet
EndChar
StartChar: ucircumflex
Encoding: 251 251 256
Width: 506
Flags: MW
HStem: -6 32<159 254.5> 698 20G<285 285>
VStem: 69 35<291 313> 409 40<162 175>
LayerCount: 2
Back
Fore
SplineSet
165 575 m 1
 143 603 l 1
 285 718 l 1
 405 603 l 1
 382 577 l 1
 282 667 l 1
 165 575 l 1
104 291 m 0
 105 159 100 26 218 26 c 0
 294 26 371 97 394 123 c 0
 402 132 409 149 409 175 c 2
 410 495 l 1
 449 502 l 1
 449 9 l 1
 405 2 l 1
 405 90 l 1
 367 47 292 -6 217 -6 c 0
 68 -6 69 148 69 291 c 0
 69 335 73 425 84 495 c 1
 120 502 l 1
 115 465 104 368 104 291 c 0
EndSplineSet
EndChar
StartChar: udieresis
Encoding: 252 252 208
Width: 506
Flags: MW
HStem: -6 32<159 254.5> 649 20G<221 221 389 389>
VStem: 69 35<291 313> 409 40<162 175>
LayerCount: 2
Back
Fore
SplineSet
221 669 m 1
 214 604 l 1
 159 596 l 1
 166 660 l 1
 221 669 l 1
389 669 m 1
 381 604 l 1
 327 596 l 1
 333 660 l 1
 389 669 l 1
104 291 m 0
 105 159 100 26 218 26 c 0
 294 26 371 97 394 123 c 0
 402 132 409 149 409 175 c 2
 410 495 l 1
 449 502 l 1
 449 9 l 1
 405 2 l 1
 405 90 l 1
 367 47 292 -6 217 -6 c 0
 68 -6 69 148 69 291 c 0
 69 335 73 425 84 495 c 1
 120 502 l 1
 115 465 104 368 104 291 c 0
EndSplineSet
EndChar
StartChar: yacute
Encoding: 253 253 209
Width: 490
Flags: MW
HStem: -203 21G<160 160> 710 20G<313 313>
LayerCount: 2
Back
Fore
SplineSet
173 617 m 1
 313 730 l 1
 351 698 l 1
 199 593 l 1
 173 617 l 1
442 496 m 1
 476 479 l 1
 160 -203 l 1
 125 -186 l 1
 237 52 l 1
 24 478 l 1
 59 495 l 1
 256 97 l 1
 442 496 l 1
EndSplineSet
EndChar
StartChar: thorn
Encoding: 254 254 258
Width: 518
Flags: MW
HStem: -191 21G<105 105> 0 35<232.5 320 220 364.5> 451 37<265 362> 677 20G<105 105>
VStem: 67 38<-183 34 73 282 381 688 688 688> 440 37<241.5 301.5>
LayerCount: 2
Back
Fore
SplineSet
305 488 m 0
 435 488 477 371 477 268 c 0
 477 215 470 0 259 0 c 0
 206 0 144 19 105 34 c 1
 105 -191 l 1
 67 -183 l 1
 67 688 l 1
 105 697 l 1
 105 381 l 1
 147 440 225 488 305 488 c 0
251 35 m 0
 389 35 440 129 440 268 c 0
 440 335 415 451 309 451 c 0
 191 451 105 360 105 282 c 2
 105 73 l 1
 127 62 189 35 251 35 c 0
EndSplineSet
EndChar
StartChar: ydieresis
Encoding: 255 255 257
Width: 490
Flags: MW
HStem: -202 21G<160 160> 649 20G<204 204 371 371>
LayerCount: 2
Back
Fore
SplineSet
204 669 m 1
 197 604 l 1
 143 596 l 1
 149 660 l 1
 204 669 l 1
371 669 m 1
 364 604 l 1
 310 596 l 1
 316 660 l 1
 371 669 l 1
442 497 m 1
 476 480 l 1
 160 -202 l 1
 125 -185 l 1
 237 53 l 1
 24 479 l 1
 59 496 l 1
 256 98 l 1
 442 497 l 1
EndSplineSet
EndChar
StartChar: Abreve
Encoding: 258 258 151
Width: 613
Flags: MW
HStem: 4 21G<87 87> 761 27<313.5 359.5 313.5 364.5> 842 20G<454 454>
LayerCount: 2
Back
Fore
SplineSet
355 679 m 1
 568 29 l 1
 538 7 l 1
 451 271 l 1
 164 211 l 1
 87 4 l 1
 54 22 l 1
 120 201 l 1
 72 191 l 1
 64 227 l 1
 137 241 l 1
 296 668 l 1
 355 679 l 1
180 251 m 1
 439 304 l 1
 327 646 l 1
 180 251 l 1
333 788 m 0
 386 788 434 813 454 862 c 1
 472 845 l 1
 451 796 394 761 335 761 c 0
 269 761 215 793 190 841 c 1
 206 858 l 1
 244 800 294 788 333 788 c 0
EndSplineSet
EndChar
StartChar: abreve
Encoding: 259 259 183
Width: 494
Flags: MW
HStem: 2 21G<399 399> 7 37<236 265.5> 477 36<219 311.5> 582 27<264.5 310.5 264.5 315.5> 663 20G<405 405>
VStem: 52 39<184 270 184 273.5> 399 38<10 65 65 65>
LayerCount: 2
Back
Fore
SplineSet
437 475 m 1x7e
 437 10 l 1
 399 2 l 1xbe
 399 65 l 1
 357 39 293 7 238 7 c 0
 131 7 52 95 52 222 c 0
 52 325 116 513 289 513 c 0
 342 513 392 497 437 475 c 1x7e
236 44 m 0x7e
 301 44 372 91 397 109 c 1
 402 450 l 1
 378 459 329 477 294 477 c 0
 144 477 91 316 91 224 c 0
 91 144 129 46 236 44 c 0x7e
284 609 m 0
 337 609 385 634 405 683 c 1
 423 666 l 1
 402 617 345 582 286 582 c 0
 220 582 166 614 141 662 c 1
 157 679 l 1
 195 621 245 609 284 609 c 0
EndSplineSet
EndChar
StartChar: Aogonek
Encoding: 260 260 116
Width: 627
Flags: MW
HStem: -209 32<516 552.5 516 553.5> 659 20G<355 355>
VStem: 436 31<-132.5 -88 -132.5 -82>
LayerCount: 2
Back
Fore
SplineSet
533 22 m 1
 451 271 l 1
 164 211 l 1
 87 4 l 1
 54 22 l 1
 120 201 l 1
 72 191 l 1
 64 227 l 1
 137 241 l 1
 296 668 l 1
 355 679 l 1
 573 14 l 1
 533 -15 l 2
 505 -36 467 -63 467 -113 c 0
 467 -152 497 -177 535 -177 c 0
 570 -177 586 -166 610 -149 c 1
 627 -172 l 1
 609 -191 572 -209 535 -209 c 0
 478 -209 436 -168 436 -112 c 0
 436 -52 490 -2 533 22 c 1
180 251 m 1
 439 304 l 1
 327 646 l 1
 180 251 l 1
EndSplineSet
EndChar
StartChar: aogonek
Encoding: 261 261 133
Width: 500
Flags: MW
HStem: -209 32<385 421.5 385 422.5> 7 37<236 265.5> 477 36<219 311.5>
VStem: 52 39<184 270 184 273.5> 305 31<-132.5 -88 -132.5 -82.5> 399 38<20 65 65 65>
LayerCount: 2
Back
Fore
SplineSet
437 10 m 1
 402 -15 l 2
 375 -35 336 -63 336 -113 c 0
 336 -152 366 -177 404 -177 c 0
 439 -177 455 -166 479 -149 c 1
 496 -172 l 1
 478 -191 441 -209 404 -209 c 0
 347 -209 305 -168 305 -112 c 0
 305 -53 356 -4 399 20 c 1
 399 65 l 1
 357 39 293 7 238 7 c 0
 131 7 52 95 52 222 c 0
 52 325 116 513 289 513 c 0
 342 513 392 497 437 475 c 1
 437 10 l 1
236 44 m 0
 301 44 372 91 397 109 c 1
 402 450 l 1
 378 459 329 477 294 477 c 0
 144 477 91 316 91 224 c 0
 91 144 129 46 236 44 c 0
EndSplineSet
EndChar
StartChar: cacute
Encoding: 263 263 186
Width: 497
Flags: MW
HStem: 0 33<279 279> 469 33<222.5 301> 710 20G<341 341>
VStem: 53 35<153 266.5 139 271.5>
LayerCount: 2
Back
Fore
SplineSet
201 617 m 1
 341 730 l 1
 378 698 l 1
 226 593 l 1
 201 617 l 1
278 33 m 0
 342 36 397 67 427 115 c 1
 452 90 l 1
 415 35 353 3 279 0 c 0
 162 -6 53 91 53 215 c 0
 53 328 140 502 275 502 c 0
 333 502 386 478 420 438 c 1
 394 413 l 1
 367 450 325 469 277 469 c 0
 168 469 88 316 88 217 c 0
 88 61 225 31 278 33 c 0
EndSplineSet
EndChar
StartChar: Dcaron
Encoding: 270 270 163
Width: 606
Flags: MW
HStem: -15 35<187 232.5 183 315.5> 646 34<103 103> 864 20G<384 384>
VStem: 68 35<27 646 27 680 27 680> 518 35<247 369.5>
LayerCount: 2
Back
Fore
SplineSet
384 884 m 1
 406 854 l 1
 265 743 l 1
 147 855 l 1
 171 883 l 1
 268 792 l 1
 384 884 l 1
68 -1 m 1
 68 680 l 1
 84 680 l 2
 204 680 291 656 352 627 c 0
 483 566 553 452 553 300 c 0
 553 98 427 -15 204 -15 c 0
 170 -15 109 -10 68 -1 c 1
103 646 m 1
 103 27 l 1
 125 23 162 20 204 20 c 0
 261 20 344 29 410 70 c 0
 481 116 518 194 518 300 c 0
 518 439 457 538 335 595 c 0
 250 636 149 645 103 646 c 1
EndSplineSet
EndChar
StartChar: dcaron
Encoding: 271 271 195
Width: 599
Flags: MW
HStem: 2 21G<405 405> 6 30<166.5 259> 460 35<191 296.5> 683 20G<459 459>
VStem: 53 37<191.5 270> 406 45
LayerCount: 2
Back
Fore
SplineSet
576 696 m 1x7c
 634 666 l 1
 547 510 l 1
 515 529 l 1
 571 629 l 1
 534 651 l 1
 576 696 l 1x7c
421 696 m 1
 459 703 l 1
 443 9 l 1
 405 2 l 1xbc
 407 97 l 1
 365 57 298 6 220 6 c 0
 105 6 53 117 53 225 c 0
 53 315 80 495 271 495 c 0
 327 495 377 475 416 457 c 1
 421 696 l 1
409 158 m 2
 415 417 l 1
 394 428 328 460 265 460 c 0
 117 460 90 321 90 228 c 0
 90 155 113 36 220 36 c 0x7c
 331 36 408 123 409 158 c 2
EndSplineSet
EndChar
StartChar: dcroat
Encoding: 273 273 196
Width: 540
Flags: MW
HStem: 2 21G<405 405> 6 30<166.5 259> 460 35<191 296.5> 576 33<324 418 317 419 457 551> 683 20G<459 459>
VStem: 53 37<191.5 270> 417 32
LayerCount: 2
Back
Fore
SplineSet
421 696 m 1x7e
 459 703 l 1
 457 609 l 1
 558 609 l 1
 551 576 l 1
 456 576 l 1
 443 9 l 1
 405 2 l 1xbe
 407 97 l 1
 365 57 298 6 220 6 c 0
 105 6 53 117 53 225 c 0
 53 315 80 495 271 495 c 0
 327 495 377 475 416 457 c 1
 418 576 l 1
 317 576 l 1
 324 609 l 1
 419 609 l 1
 421 696 l 1x7e
409 158 m 2
 415 417 l 1
 394 428 328 460 265 460 c 0
 117 460 90 321 90 228 c 0
 90 155 113 36 220 36 c 0x7e
 331 36 408 123 409 158 c 2
EndSplineSet
EndChar
StartChar: Eogonek
Encoding: 280 280 158
Width: 601
Flags: MW
HStem: -209 32<445 481.5 445 482.5> 0 37<105 429 483 483 483 530> 336 37<105 486 105 497> 644 37<105 533 105 105>
VStem: 68 37<37 336 373 644> 365 31<-132.5 -89>
LayerCount: 2
Back
Fore
SplineSet
539 -149 m 1
 556 -172 l 1
 538 -191 501 -209 464 -209 c 0
 407 -209 365 -168 365 -112 c 0
 365 -66 395 -27 429 0 c 1
 68 0 l 1
 68 681 l 1
 541 681 l 1
 533 644 l 1
 105 644 l 1
 105 373 l 1
 497 373 l 1
 486 336 l 1
 105 336 l 1
 105 37 l 1
 545 37 l 1
 530 0 l 1
 483 0 l 1
 462 -15 l 2
 435 -35 396 -63 396 -113 c 0
 396 -152 426 -177 464 -177 c 0
 499 -177 515 -166 539 -149 c 1
EndSplineSet
EndChar
StartChar: eogonek
Encoding: 281 281 190
Width: 517
Flags: MW
HStem: -209 32<297 333.5 297 334.5> 0 32 470 32<234 320.5>
VStem: 52 32<242 309 242 319.5> 217 31<-132.5 -89>
LayerCount: 2
Back
Fore
SplineSet
391 -149 m 1
 408 -172 l 1
 390 -191 353 -209 316 -209 c 0
 259 -209 217 -168 217 -112 c 0
 217 -66 248 -27 282 0 c 1
 153 6 52 116 52 251 c 0
 52 388 159 502 294 502 c 0
 378 502 448 441 473 365 c 1
 104 160 l 1
 142 84 213 32 294 32 c 0
 346 32 396 54 435 91 c 1
 458 68 l 1
 431 42 409 32 380 18 c 0
 328 -7 248 -40 248 -113 c 0
 248 -152 278 -177 316 -177 c 0
 351 -177 367 -166 391 -149 c 1
294 470 m 0
 174 470 84 367 84 251 c 0
 84 233 87 214 93 190 c 1
 431 379 l 1
 399 436 347 470 294 470 c 0
EndSplineSet
EndChar
StartChar: Ecaron
Encoding: 282 282 160
Width: 601
Flags: MW
HStem: 0 37<105 530> 336 37<105 486 105 497> 644 37<105 533 105 105> 864 20G<415 415>
VStem: 68 37<37 37 37 336 373 644>
LayerCount: 2
Back
Fore
SplineSet
415 884 m 1
 436 854 l 1
 295 743 l 1
 177 855 l 1
 201 883 l 1
 298 792 l 1
 415 884 l 1
105 37 m 1
 545 37 l 1
 530 0 l 1
 68 0 l 1
 68 681 l 1
 541 681 l 1
 533 644 l 1
 105 644 l 1
 105 373 l 1
 497 373 l 1
 486 336 l 1
 105 336 l 1
 105 37 l 1
EndSplineSet
EndChar
StartChar: Lacute
Encoding: 313 313 153
Width: 477
Flags: MW
HStem: 1 21G<68 68> 15 38 876 20G<262 262>
VStem: 68 37<40 669 669 669>
LayerCount: 2
Back
Fore
SplineSet
124 784 m 1x70
 262 896 l 1
 299 864 l 1
 149 760 l 1
 124 784 l 1x70
68 1 m 1xb0
 68 669 l 1
 105 676 l 1
 105 40 l 1
 457 66 l 1
 461 30 l 1
 68 1 l 1xb0
EndSplineSet
EndChar
StartChar: lacute
Encoding: 314 314 185
Width: 216
Flags: MW
HStem: 2 21G<91 91> 886 20G<189 189>
VStem: 91 37<9 689 689 689>
LayerCount: 2
Back
Fore
SplineSet
50 793 m 1
 189 906 l 1
 227 874 l 1
 75 769 l 1
 50 793 l 1
91 689 m 1
 128 698 l 1
 128 9 l 1
 91 2 l 1
 91 689 l 1
EndSplineSet
EndChar
StartChar: Lcaron
Encoding: 317 317 120
Width: 522
Flags: MW
HStem: 1 21G<114 114> 15 38 864 20G<309 309>
VStem: 114 37<40 669 669 669>
LayerCount: 2
Back
Fore
SplineSet
114 1 m 1
 114 669 l 1
 151 676 l 1
 151 40 l 1
 503 66 l 1
 507 30 l 1
 114 1 l 1
309 884 m 1
 331 854 l 1
 190 743 l 1
 72 855 l 1
 96 883 l 1
 194 792 l 1
 309 884 l 1
EndSplineSet
EndChar
StartChar: lcaron
Encoding: 318 318 137
Width: 280
Flags: MW
HStem: 2 21G<89 89> 679 20G<247 247>
VStem: 89 38<9 689 689 689>
LayerCount: 2
Back
Fore
SplineSet
89 689 m 1
 127 698 l 1
 127 9 l 1
 89 2 l 1
 89 689 l 1
247 699 m 1
 304 669 l 1
 218 513 l 1
 185 532 l 1
 241 632 l 1
 204 654 l 1
 247 699 l 1
EndSplineSet
EndChar
StartChar: Lslash
Encoding: 321 321 118
Width: 539
Flags: MW
HStem: 1 21G<132 132> 15 38 656 20G<169 169>
VStem: 132 37<40 312 312 312 380 669 669 669>
LayerCount: 2
Back
Fore
SplineSet
524 30 m 1x70
 132 1 l 1xb0
 132 312 l 1
 70 272 l 1
 47 304 l 1
 132 357 l 1
 132 669 l 1
 169 676 l 1
 169 380 l 1
 232 420 l 1
 253 388 l 1
 169 335 l 1
 169 40 l 1
 520 66 l 1
 524 30 l 1x70
EndSplineSet
EndChar
StartChar: lslash
Encoding: 322 322 135
Width: 256
Flags: MW
HStem: 2 21G<112 112> 678 20G<150 150>
VStem: 112 38<9 315 315 315 384 689 689 689>
LayerCount: 2
Back
Fore
SplineSet
235 393 m 1
 150 338 l 1
 150 9 l 1
 112 2 l 1
 112 315 l 1
 50 276 l 1
 27 307 l 1
 112 361 l 1
 112 689 l 1
 150 698 l 1
 150 384 l 1
 213 425 l 1
 235 393 l 1
EndSplineSet
EndChar
StartChar: nacute
Encoding: 324 324 197
Width: 526
Flags: MW
HStem: 2 21G<68 68> 467 34<299 349.5> 710 20G<356 356>
VStem: 68 37<126 126 282 493 493 493> 433 36<10 109 10 144 10 195>
LayerCount: 2
Back
Fore
SplineSet
216 617 m 1
 356 730 l 1
 394 698 l 1
 241 593 l 1
 216 617 l 1
105 500 m 1
 105 282 l 1
 129 383 217 501 327 501 c 0
 392 501 434 465 452 397 c 0
 466 333 469 244 469 109 c 2
 469 10 l 1
 433 3 l 1
 433 144 l 2
 433 246 431 333 417 386 c 0
 404 444 375 467 324 467 c 0
 274 467 218 445 160 337 c 0
 125 272 106 202 105 126 c 2
 104 10 l 1
 68 2 l 1
 68 493 l 1
 105 500 l 1
EndSplineSet
EndChar
StartChar: Ncaron
Encoding: 327 327 166
Width: 605
Flags: MW
HStem: 1 21G<495 495> 864 20G<426 426>
VStem: 68 35 513 34<45 672 672 672>
LayerCount: 2
Back
Fore
SplineSet
426 884 m 1
 448 854 l 1
 307 743 l 1
 188 855 l 1
 212 883 l 1
 310 792 l 1
 426 884 l 1
513 672 m 1
 547 679 l 1
 547 12 l 1
 495 1 l 1
 103 631 l 1
 103 11 l 1
 69 3 l 1
 68 666 l 1
 114 680 l 1
 513 45 l 1
 513 672 l 1
EndSplineSet
EndChar
StartChar: ncaron
Encoding: 328 328 198
Width: 526
Flags: MW
HStem: 2 21G<68 68> 467 34<299 349.5> 698 20G<407 407>
VStem: 68 37<126 126 282 493 493 493> 433 36<10 109 10 144 10 195>
LayerCount: 2
Back
Fore
SplineSet
407 718 m 1
 429 687 l 1
 286 575 l 1
 166 688 l 1
 190 717 l 1
 289 625 l 1
 407 718 l 1
105 500 m 1
 105 282 l 1
 129 383 217 501 327 501 c 0
 392 501 434 465 452 397 c 0
 466 333 469 244 469 109 c 2
 469 10 l 1
 433 3 l 1
 433 144 l 2
 433 246 431 333 417 386 c 0
 404 444 375 467 324 467 c 0
 274 467 218 445 160 337 c 0
 125 272 106 202 105 126 c 2
 104 10 l 1
 68 2 l 1
 68 493 l 1
 105 500 l 1
EndSplineSet
EndChar
StartChar: Ohungarumlaut
Encoding: 336 336 169
Width: 650
Flags: MW
HStem: -2 33<246.5 374 246.5 386> 649 33<282.5 412.5> 876 20G<323 323 488 488>
VStem: 62 34<235.5 406 235.5 414.5> 564 34<273.5 436>
LayerCount: 2
Back
Fore
SplineSet
185 784 m 1
 323 896 l 1
 360 864 l 1
 209 760 l 1
 185 784 l 1
350 784 m 1
 488 896 l 1
 526 864 l 1
 374 760 l 1
 350 784 l 1
308 -2 m 0
 165 -2 62 144 62 314 c 0
 62 515 196 682 352 682 c 0
 494 682 598 540 598 368 c 0
 598 167 464 -2 308 -2 c 0
348 649 m 0
 217 649 96 500 96 312 c 0
 96 159 185 31 308 31 c 0
 440 31 564 183 564 364 c 0
 564 508 477 649 348 649 c 0
EndSplineSet
EndChar
StartChar: ohungarumlaut
Encoding: 337 337 201
Width: 545
Flags: MW
HStem: 0 32<205.5 304 205.5 315> 467 33<228 325.5> 710 20G<293 293 460 460>
VStem: 52 39<177 294.5 177 306.5> 446 38<203 320.5>
LayerCount: 2
Back
Fore
SplineSet
154 617 m 1
 293 730 l 1
 331 698 l 1
 179 593 l 1
 154 617 l 1
321 617 m 1
 460 730 l 1
 499 698 l 1
 347 593 l 1
 321 617 l 1
252 0 m 0
 138 0 52 107 52 233 c 0
 52 380 153 500 284 500 c 0
 397 500 484 395 484 271 c 0
 484 123 378 0 252 0 c 0
279 467 m 0
 177 467 91 358 91 231 c 0
 91 123 157 32 254 32 c 0
 354 32 446 140 446 266 c 0
 446 375 372 467 279 467 c 0
EndSplineSet
EndChar
StartChar: OE
Encoding: 338 338 223
Width: 1083
Flags: MW
HStem: 0 37<598 1023> 336 37<598 979 598 990> 644 37<598 1026 598 598> 664 20G<267.5 385>
VStem: 59 34<237.5 408 237.5 414.5> 561 37<37 202 202 202 373 437 529 644>
LayerCount: 2
Back
Fore
SplineSet
561 0 m 1xec
 561 202 l 1
 506 77 414 0 305 0 c 0
 162 0 59 144 59 314 c 0
 59 515 187 684 348 684 c 0xdc
 422 684 517 635 561 529 c 1
 561 681 l 1
 1033 681 l 1
 1026 644 l 1
 598 644 l 1
 598 373 l 1
 990 373 l 1
 979 336 l 1
 598 336 l 1
 598 37 l 1
 1038 37 l 1
 1023 0 l 1
 561 0 l 1xec
561 365 m 1
 561 509 470 651 341 651 c 0
 209 651 93 502 93 314 c 0
 93 161 181 33 305 33 c 0
 434 33 547 161 561 365 c 1
EndSplineSet
EndChar
StartChar: oe
Encoding: 339 339 224
Width: 901
Flags: MW
HStem: 0 32<649.5 716 649.5 720> 470 32<639 716.5> 480 20G<214.5 318>
VStem: 48 36<177 294.5 177 306.5> 441 39<242 311.5 242 320.5>
LayerCount: 2
Back
Fore
SplineSet
690 32 m 0xd8
 742 32 792 54 831 91 c 1
 841 81 846 75 854 68 c 1
 808 25 750 0 690 0 c 0
 586 0 494 76 460 173 c 1
 420 70 332 0 246 0 c 0
 133 0 48 107 48 233 c 0
 48 380 149 500 280 500 c 0xb8
 356 500 433 432 466 342 c 1
 499 432 590 502 688 502 c 0
 766 502 843 441 869 365 c 1
 500 160 l 1
 538 84 609 32 690 32 c 0xd8
441 266 m 0
 441 375 368 470 275 470 c 0xd8
 173 470 84 358 84 231 c 0
 84 123 151 29 248 29 c 0
 346 29 441 141 441 266 c 0
480 251 m 0
 480 233 483 214 489 190 c 1
 827 379 l 1
 795 436 743 470 690 470 c 0
 573 470 480 372 480 251 c 0
EndSplineSet
EndChar
StartChar: rcaron
Encoding: 345 345 204
Width: 392
Flags: MW
HStem: 2 21G<69 69> 466 36<253.5 308.5> 698 20G<346 346>
VStem: 69 37<9 252 366 493 493 493> 334 37<404 419 419 433>
LayerCount: 2
Back
Fore
SplineSet
346 718 m 1
 367 687 l 1
 225 575 l 1
 105 688 l 1
 129 717 l 1
 228 625 l 1
 346 718 l 1
106 500 m 1
 106 366 l 1
 135 421 211 502 296 502 c 0
 338 502 371 474 371 438 c 2
 371 404 l 1
 334 397 l 1
 334 419 l 2
 334 447 329 466 288 466 c 0
 210 466 106 357 106 252 c 2
 106 9 l 1
 69 2 l 1
 69 493 l 1
 106 500 l 1
EndSplineSet
EndChar
StartChar: sacute
Encoding: 347 347 138
Width: 450
Flags: MW
HStem: 0 31<204.5 262> 475 30<255 281> 710 20G<309 309>
VStem: 82 37<356.5 406.5 356.5 432.5> 368 38<107.5 173>
LayerCount: 2
Back
Fore
SplineSet
169 617 m 1
 309 730 l 1
 347 698 l 1
 195 593 l 1
 169 617 l 1
373 386 m 1
 373 390 l 2
 373 456 307 475 255 475 c 0
 149 474 119 433 119 380 c 0
 119 333 161 306 244 284 c 0
 353 254 406 215 406 141 c 0
 406 30 290 0 234 0 c 0
 154 0 81 35 57 107 c 1
 92 112 l 1
 114 59 175 31 234 31 c 0
 305 31 368 75 368 140 c 0
 368 206 310 229 237 249 c 0
 164 268 82 303 82 381 c 0
 82 484 182 505 255 505 c 0
 310 505 404 487 404 403 c 2
 404 394 l 1
 373 386 l 1
EndSplineSet
EndChar
StartChar: Scedilla
Encoding: 350 350 125
Width: 589
Flags: MW
HStem: -207 23<290 314 290 320.5> -62 23<294 314> -1 34<301.5 353 264 357> 0 21G<276 281> 646 35<279 361>
VStem: 100 42<484.5 552 484.5 588> 357 24<-140 -106> 498 36
LayerCount: 2
Back
Fore
SplineSet
142 520 m 0xef
 142 449 206 409 316 378 c 0
 458 337 534 275 534 183 c 0
 534 57 407 -1 307 -1 c 0xef
 296 -1 286 0 276 0 c 1xdf
 275 -39 l 1
 289 -39 l 2
 342 -39 381 -71 381 -122 c 0
 381 -169 344 -207 297 -207 c 0
 273 -207 251 -198 235 -182 c 1
 252 -166 l 1
 264 -178 283 -184 297 -184 c 0
 331 -184 357 -157 357 -123 c 0
 357 -89 331 -62 297 -62 c 0
 291 -62 275 -64 266 -70 c 1
 245 -50 l 1
 263 2 l 1
 171 14 96 65 67 138 c 1
 109 145 l 1
 142 67 226 33 302 33 c 0
 404 33 495 82 495 183 c 0
 495 218 479 294 309 340 c 0
 212 366 100 415 100 519 c 0
 100 657 229 681 329 681 c 0
 418 681 531 650 531 545 c 2
 531 536 l 1
 498 527 l 1
 498 532 l 2
 498 625 393 646 329 646 c 0
 175 646 142 584 142 520 c 0xef
EndSplineSet
EndChar
StartChar: scedilla
Encoding: 351 351 142
Width: 450
Flags: MW
HStem: -209 23<234 258 234 264.5> -64 23<238 258> 0 31<220 234 220 220> 475 30<255 281>
VStem: 82 37<356.5 406.5 356.5 432.5> 301 24<-142 -108> 368 38<107.5 173>
LayerCount: 2
Back
Fore
SplineSet
241 -186 m 0
 275 -186 301 -159 301 -125 c 0
 301 -91 275 -64 241 -64 c 0
 235 -64 219 -66 210 -72 c 1
 189 -52 l 1
 208 1 l 1
 138 8 78 43 57 107 c 1
 92 112 l 1
 114 59 175 31 234 31 c 0
 305 31 368 75 368 140 c 0
 368 206 310 229 237 249 c 0
 164 268 82 303 82 381 c 0
 82 484 182 505 255 505 c 0
 310 505 404 487 404 403 c 2
 404 394 l 1
 373 386 l 1
 373 390 l 2
 373 456 307 475 255 475 c 0
 149 474 119 433 119 380 c 0
 119 333 161 306 244 284 c 0
 353 254 406 215 406 141 c 0
 406 30 290 0 234 0 c 2
 220 0 l 1
 219 -41 l 1
 233 -41 l 2
 286 -41 325 -73 325 -124 c 0
 325 -171 288 -209 241 -209 c 0
 217 -209 195 -200 179 -184 c 1
 196 -168 l 1
 208 -180 227 -186 241 -186 c 0
EndSplineSet
EndChar
StartChar: Scaron
Encoding: 352 352 124
Width: 589
Flags: MW
HStem: -1 34<264 353 264 357> 646 35<279 361> 864 20G<440 440>
VStem: 100 42<484.5 552 484.5 588> 498 36
LayerCount: 2
Back
Fore
SplineSet
440 884 m 1
 461 854 l 1
 321 743 l 1
 203 855 l 1
 226 883 l 1
 324 792 l 1
 440 884 l 1
142 520 m 0
 142 449 206 409 316 378 c 0
 458 337 534 275 534 183 c 0
 534 57 407 -1 307 -1 c 0
 195 -1 101 54 67 138 c 1
 109 145 l 1
 142 67 226 33 302 33 c 0
 404 33 495 82 495 183 c 0
 495 218 479 294 309 340 c 0
 212 366 100 415 100 519 c 0
 100 657 229 681 329 681 c 0
 418 681 531 650 531 545 c 2
 531 536 l 1
 498 527 l 1
 498 532 l 2
 498 625 393 646 329 646 c 0
 175 646 142 584 142 520 c 0
EndSplineSet
EndChar
StartChar: uni0162
Encoding: 354 354 178
Width: 512
Flags: MW
HStem: -227 21G<230 230> 644 37<11 233 11 509 271 271 271 509>
VStem: 233 38<9 644 9 644 9 644>
LayerCount: 2
Back
Fore
SplineSet
233 2 m 1
 233 644 l 1
 11 644 l 1
 11 681 l 1
 509 681 l 1
 509 644 l 1
 271 644 l 1
 271 9 l 1
 233 2 l 1
259 -43 m 1
 316 -73 l 1
 230 -227 l 1
 198 -208 l 1
 254 -109 l 1
 217 -88 l 1
 259 -43 l 1
EndSplineSet
EndChar
StartChar: uni0163
Encoding: 355 355 210
Width: 363
Flags: MW
HStem: -229 21G<160 160> 465 37<22 166 22 166 205 348> 656 20G<205 205>
VStem: 166 39<9 465 9 465 9 465 502 669 669 669>
LayerCount: 2
Back
Fore
SplineSet
348 502 m 1
 348 465 l 1
 205 465 l 1
 205 9 l 1
 166 2 l 1
 166 465 l 1
 22 465 l 1
 22 502 l 1
 166 502 l 1
 166 669 l 1
 205 676 l 1
 205 502 l 1
 348 502 l 1
189 -44 m 1
 246 -74 l 1
 160 -229 l 1
 128 -210 l 1
 184 -110 l 1
 146 -89 l 1
 189 -44 l 1
EndSplineSet
EndChar
StartChar: tcaron
Encoding: 357 357 143
Width: 419
Flags: MW
HStem: 2 21G<166 166> 465 37<22 166 22 166 204 348> 724 20G<345 345>
VStem: 166 38<9 465 9 465 9 465 502 669 669 669>
LayerCount: 2
Back
Fore
SplineSet
345 744 m 1
 402 713 l 1
 316 558 l 1
 283 577 l 1
 340 677 l 1
 302 699 l 1
 345 744 l 1
348 502 m 1
 348 465 l 1
 204 465 l 1
 204 9 l 1
 166 2 l 1
 166 465 l 1
 22 465 l 1
 22 502 l 1
 166 502 l 1
 166 669 l 1
 204 676 l 1
 204 502 l 1
 348 502 l 1
EndSplineSet
EndChar
StartChar: Uring
Encoding: 366 366 173
Width: 674
Flags: MW
HStem: 0 30<236 452 236 469.5> 743 24<320.5 369 320.5 372.5> 923 25<340 384>
VStem: 68 37<343 496.5 343 497.5> 236 25<817.5 864 817.5 867.5> 444 26<827 870.5> 579 37<363.5 473.5>
LayerCount: 2
Back
Fore
SplineSet
342 0 m 0
 107 0 68 199 68 463 c 0
 68 532 69 635 70 671 c 1
 107 678 l 1
 106 655 105 540 105 453 c 0
 105 233 130 30 342 30 c 0
 562 30 579 253 579 434 c 0
 579 513 578 624 577 670 c 1
 615 678 l 1
 616 653 616 556 616 480 c 0
 616 247 597 0 342 0 c 0
343 743 m 0
 280 743 236 786 236 838 c 0
 236 897 293 948 363 948 c 0
 429 948 470 900 470 853 c 0
 470 783 402 743 343 743 c 0
360 923 m 0
 320 923 261 890 261 838 c 0
 261 797 296 767 345 767 c 0
 393 767 444 804 444 850 c 0
 444 891 408 923 360 923 c 0
EndSplineSet
EndChar
StartChar: uring
Encoding: 367 367 205
Width: 505
Flags: MW
HStem: -6 32<159 254.5> 587 24<249.5 298 249.5 301.5> 767 25<269 313>
VStem: 69 35<291 313> 165 25<661.5 708 661.5 711.5> 373 26<671 714.5> 409 40<162 175>
LayerCount: 2
Back
Fore
SplineSet
104 291 m 0
 105 159 100 26 218 26 c 0
 294 26 371 97 394 123 c 0
 402 132 409 149 409 175 c 2
 410 495 l 1
 449 502 l 1
 449 9 l 1
 405 2 l 1
 405 90 l 1
 367 47 292 -6 217 -6 c 0
 68 -6 69 148 69 291 c 0
 69 335 73 425 84 495 c 1
 120 502 l 1
 115 465 104 368 104 291 c 0
272 587 m 0
 209 587 165 630 165 682 c 0
 165 741 222 792 292 792 c 0
 358 792 399 744 399 697 c 0
 399 627 331 587 272 587 c 0
289 767 m 0
 249 767 190 734 190 682 c 0
 190 641 225 611 274 611 c 0
 322 611 373 648 373 694 c 0
 373 735 337 767 289 767 c 0
EndSplineSet
EndChar
StartChar: uhungarumlaut
Encoding: 369 369 207
Width: 528
Flags: MW
HStem: -6 32<159 254.5> 710 20G<260 260 427 427>
VStem: 69 35<291 313> 409 40<162 175>
LayerCount: 2
Back
Fore
SplineSet
121 617 m 1
 260 730 l 1
 298 698 l 1
 146 593 l 1
 121 617 l 1
287 617 m 1
 427 730 l 1
 465 698 l 1
 313 593 l 1
 287 617 l 1
104 291 m 0
 105 159 100 26 218 26 c 0
 294 26 371 97 394 123 c 0
 402 132 409 149 409 175 c 2
 410 495 l 1
 449 502 l 1
 449 9 l 1
 405 2 l 1
 405 90 l 1
 367 47 292 -6 217 -6 c 0
 68 -6 69 148 69 291 c 0
 69 335 73 425 84 495 c 1
 120 502 l 1
 115 465 104 368 104 291 c 0
EndSplineSet
EndChar
StartChar: Zacute
Encoding: 377 377 129
Width: 611
Flags: MW
HStem: 0 42<72 557 100 549> 639 42<92 518 83 547> 876 20G<391 391>
LayerCount: 2
Back
Fore
SplineSet
253 784 m 1
 391 896 l 1
 429 864 l 1
 278 760 l 1
 253 784 l 1
72 0 m 1
 52 44 l 1
 518 639 l 1
 83 639 l 1
 92 681 l 1
 547 681 l 1
 567 637 l 1
 100 42 l 1
 557 42 l 1
 549 0 l 1
 72 0 l 1
EndSplineSet
EndChar
StartChar: zacute
Encoding: 378 378 144
Width: 443
Flags: MW
HStem: 0 37<78 404 51 411> 465 37<65 375 57 402> 710 20G<291 291>
LayerCount: 2
Back
Fore
SplineSet
404 0 m 1
 51 0 l 1
 33 35 l 1
 375 465 l 1
 57 465 l 1
 65 502 l 1
 402 502 l 1
 420 468 l 1
 78 37 l 1
 411 37 l 1
 404 0 l 1
151 617 m 1
 291 730 l 1
 329 698 l 1
 176 593 l 1
 151 617 l 1
EndSplineSet
EndChar
StartChar: Zdotaccent
Encoding: 379 379 132
Width: 611
Flags: MW
HStem: 0 42<72 557 100 549> 639 42<92 518 83 547> 803 20G<341 341>
LayerCount: 2
Back
Fore
SplineSet
72 0 m 1
 52 44 l 1
 518 639 l 1
 83 639 l 1
 92 681 l 1
 547 681 l 1
 567 637 l 1
 100 42 l 1
 557 42 l 1
 549 0 l 1
 72 0 l 1
341 823 m 1
 333 759 l 1
 280 751 l 1
 286 815 l 1
 341 823 l 1
EndSplineSet
EndChar
StartChar: zdotaccent
Encoding: 380 380 147
Width: 443
Flags: MW
HStem: 0 37<78 404 51 411> 465 37<65 375 57 402> 649 20G<272 272>
LayerCount: 2
Back
Fore
SplineSet
272 669 m 1
 265 604 l 1
 210 596 l 1
 217 660 l 1
 272 669 l 1
404 0 m 1
 51 0 l 1
 33 35 l 1
 375 465 l 1
 57 465 l 1
 65 502 l 1
 402 502 l 1
 420 468 l 1
 78 37 l 1
 411 37 l 1
 404 0 l 1
EndSplineSet
EndChar
StartChar: Zcaron
Encoding: 381 381 131
Width: 611
Flags: MW
HStem: 0 42<72 557 100 549> 639 42<92 518 83 547> 864 20G<426 426>
LayerCount: 2
Back
Fore
SplineSet
426 884 m 1
 448 854 l 1
 308 743 l 1
 189 855 l 1
 213 883 l 1
 311 792 l 1
 426 884 l 1
72 0 m 1
 52 44 l 1
 518 639 l 1
 83 639 l 1
 92 681 l 1
 547 681 l 1
 567 637 l 1
 100 42 l 1
 557 42 l 1
 549 0 l 1
 72 0 l 1
EndSplineSet
EndChar
StartChar: caron
Encoding: 711 711 139
Width: 490
Flags: MW
HStem: 575 21G<239 239> 698 20G<359 359>
LayerCount: 2
Back
Fore
SplineSet
359 718 m 1
 380 687 l 1
 239 575 l 1
 119 688 l 1
 143 717 l 1
 242 625 l 1
 359 718 l 1
EndSplineSet
EndChar
StartChar: breve
Encoding: 728 728 117
Width: 490
Flags: MW
HStem: 582 27<233.5 279.5 233.5 284.5> 663 20G<374 374>
LayerCount: 2
Back
Fore
SplineSet
253 609 m 0
 306 609 354 634 374 683 c 1
 392 666 l 1
 371 617 314 582 255 582 c 0
 189 582 135 614 110 662 c 1
 126 679 l 1
 164 621 214 609 253 609 c 0
EndSplineSet
EndChar
StartChar: dotaccent
Encoding: 729 729 211
Width: 490
Flags: MW
HStem: 571 21G<220 220> 624 20G<281 281>
LayerCount: 2
Back
Fore
SplineSet
281 644 m 1
 274 579 l 1
 220 571 l 1
 226 635 l 1
 281 644 l 1
EndSplineSet
EndChar
StartChar: ogonek
Encoding: 731 731 134
Width: 490
Flags: MW
HStem: -209 32<229 265.5 229 266.5> 7 20G<256 256>
VStem: 149 31<-132.5 -88 -132.5 -82>
LayerCount: 2
Back
Fore
SplineSet
323 -149 m 1
 340 -172 l 1
 322 -191 285 -209 248 -209 c 0
 191 -209 149 -168 149 -112 c 0
 149 -52 202 -3 245 21 c 2
 256 27 l 1
 274 5 l 1
 246 -15 l 2
 219 -35 180 -63 180 -113 c 0
 180 -152 210 -177 248 -177 c 0
 283 -177 299 -166 323 -149 c 1
EndSplineSet
EndChar
StartChar: hungarumlaut
Encoding: 733 733 145
Width: 490
Flags: MW
HStem: 593 21G<102 102 270 270> 710 20G<217 217 384 384>
LayerCount: 2
Back
Fore
SplineSet
77 617 m 1
 217 730 l 1
 254 698 l 1
 102 593 l 1
 77 617 l 1
244 617 m 1
 384 730 l 1
 422 698 l 1
 270 593 l 1
 244 617 l 1
EndSplineSet
EndChar
StartChar: endash
Encoding: 8211 8211 92
Width: 586
Flags: MW
HStem: 231 36<83 517 75 525>
LayerCount: 2
Back
Fore
SplineSet
517 231 m 1
 75 231 l 1
 83 267 l 1
 525 267 l 1
 517 231 l 1
EndSplineSet
EndChar
StartChar: emdash
Encoding: 8212 8212 73
Width: 867
Flags: MW
HStem: 231 38<80 808 72 815>
LayerCount: 2
Back
Fore
SplineSet
808 231 m 1
 72 231 l 1
 80 269 l 1
 815 269 l 1
 808 231 l 1
EndSplineSet
EndChar
StartChar: quoteleft
Encoding: 8216 8216 84
Width: 172
Flags: MW
HStem: 570 21G<86 86> 735 20G<115 115>
LayerCount: 2
Back
Fore
SplineSet
86 570 m 1
 29 600 l 1
 115 755 l 1
 147 736 l 1
 91 636 l 1
 129 614 l 1
 86 570 l 1
EndSplineSet
EndChar
StartChar: quoteright
Encoding: 8217 8217 67
Width: 172
Flags: MW
HStem: 571 21G<61 61> 736 20G<90 90>
LayerCount: 2
Back
Fore
SplineSet
90 756 m 1
 147 726 l 1
 61 571 l 1
 29 589 l 1
 85 689 l 1
 47 711 l 1
 90 756 l 1
EndSplineSet
EndChar
StartChar: quotedblleft
Encoding: 8220 8220 91
Width: 338
Flags: MW
HStem: 570 21G<84 84 257 257> 735 20G<113 113 286 286>
LayerCount: 2
Back
Fore
SplineSet
257 570 m 1
 200 600 l 1
 286 755 l 1
 318 736 l 1
 262 636 l 1
 300 614 l 1
 257 570 l 1
84 570 m 1
 27 600 l 1
 113 755 l 1
 146 736 l 1
 89 636 l 1
 127 614 l 1
 84 570 l 1
EndSplineSet
EndChar
StartChar: quotedblright
Encoding: 8221 8221 66
Width: 338
Flags: MW
HStem: 571 21G<59 59 232 232> 736 20G<88 88 261 261>
LayerCount: 2
Back
Fore
SplineSet
88 756 m 1
 146 726 l 1
 59 571 l 1
 27 589 l 1
 83 689 l 1
 46 711 l 1
 88 756 l 1
261 756 m 1
 318 726 l 1
 232 571 l 1
 200 589 l 1
 256 689 l 1
 218 711 l 1
 261 756 l 1
EndSplineSet
EndChar
StartChar: bullet
Encoding: 8226 8226 78
Width: 368
Flags: MW
HStem: 171 164<166.5 211.5>
VStem: 107 163<230.5 275.5>
LayerCount: 2
Back
Fore
SplineSet
270 253 m 0
 270 208 234 171 189 171 c 0
 144 171 107 208 107 253 c 0
 107 298 144 335 189 335 c 0
 234 335 270 298 270 253 c 0
EndSplineSet
EndChar
StartChar: ellipsis
Encoding: 8230 8230 69
Width: 724
Flags: MW
HStem: 1 21G<72 72 338 338 605 605> 54 20G<133 133 400 400 666 666>
LayerCount: 2
Back
Fore
SplineSet
133 74 m 1
 126 9 l 1
 72 1 l 1
 78 66 l 1
 133 74 l 1
400 74 m 1
 393 9 l 1
 338 1 l 1
 345 66 l 1
 400 74 l 1
666 74 m 1
 659 9 l 1
 605 1 l 1
 611 66 l 1
 666 74 l 1
EndSplineSet
EndChar
StartChar: guilsinglleft
Encoding: 8249 8249 110
Width: 394
Flags: MW
HStem: 71 21G<279 279> 413 20G<296 296>
LayerCount: 2
Back
Fore
SplineSet
279 71 m 1
 81 249 l 1
 296 433 l 1
 320 407 l 1
 135 249 l 1
 302 98 l 1
 279 71 l 1
EndSplineSet
EndChar
StartChar: guilsinglright
Encoding: 8250 8250 64
Width: 394
Flags: MW
HStem: 73 21G<126 126> 415 20G<107 107>
LayerCount: 2
Back
Fore
SplineSet
126 73 m 1
 101 99 l 1
 269 252 l 1
 85 410 l 1
 107 435 l 1
 323 251 l 1
 126 73 l 1
EndSplineSet
EndChar
StartChar: Euro
Encoding: 8364 8364 75
Width: 653
Flags: MW
HStem: 0 35<364 452.5 364 458> 272 38<71 145 71 145 64 145 180 180 180 415> 401 39<71 157 64 169 71 192 205 437> 663 36<384.5 466.5>
VStem: 145 35<272 272>
LayerCount: 2
Back
Fore
SplineSet
429 0 m 0
 286 0 155 126 145 272 c 1
 64 272 l 1
 71 310 l 1
 145 310 l 1
 148 346 152 376 157 401 c 1
 64 401 l 1
 71 440 l 1
 169 440 l 1
 191 514 291 699 441 699 c 0
 503 699 556 681 597 646 c 1
 572 622 l 1
 541 645 497 663 436 663 c 0
 333 663 237 528 205 440 c 1
 444 440 l 1
 437 401 l 1
 192 401 l 1
 185 370 181 340 178 310 c 1
 424 310 l 1
 415 272 l 1
 180 272 l 1
 189 156 306 35 422 35 c 0
 483 35 528 48 563 69 c 1
 588 44 l 1
 543 15 487 0 429 0 c 0
EndSplineSet
EndChar
StartChar: trademark
Encoding: 8482 8482 97
Width: 549
Flags: MW
HStem: 480 21G<422 422> 672 27<4 134 4 283 162 283 162 162>
VStem: 134 28<490 672 490 672 490 672>
LayerCount: 2
Back
Fore
SplineSet
283 699 m 1
 283 672 l 1
 162 672 l 1
 162 490 l 1
 134 483 l 1
 134 672 l 1
 4 672 l 1
 4 699 l 1
 283 699 l 1
543 698 m 1
 610 486 l 1
 585 482 l 1
 526 666 l 1
 460 488 l 1
 422 480 l 1
 373 668 l 1
 301 490 l 1
 268 482 l 1
 353 691 l 1
 394 697 l 1
 441 512 l 1
 506 692 l 1
 543 698 l 1
EndSplineSet
EndChar
StartChar: .notdef
Encoding: 65536 -1 0
Width: 490
Flags: MW
HStem: 0 21<50 430> 660 21<62 62 62 442>
VStem: 20 21<46 655 46 681> 455 20<21 641 641 641>
LayerCount: 2
Back
Fore
SplineSet
20 681 m 1
 475 681 l 1
 475 0 l 1
 20 0 l 1
 20 681 l 1
234 342 m 1
 41 655 l 1
 41 46 l 1
 234 342 l 1
62 660 m 1
 246 361 l 1
 442 660 l 1
 62 660 l 1
246 320 m 1
 50 21 l 1
 430 21 l 1
 246 320 l 1
258 339 m 1
 455 21 l 1
 455 641 l 1
 258 339 l 1
EndSplineSet
EndChar
